<?xml version="1.0" encoding="UTF-8"?>
<svg width="172.748923px" height="143.225px" viewBox="0 0 172.748923 143.225" version="1.1" xmlns="http://www.w3.org/2000/svg" xmlns:xlink="http://www.w3.org/1999/xlink">
    <title>LogoGreen</title>
    <defs>
        <polygon id="path-1" points="0 -8.82130735e-15 14.5238032 -8.82130735e-15 14.5238032 7.96166665 0 7.96166665"></polygon>
        <polygon id="path-3" points="-8.82130735e-15 1.76426147e-14 12.4950136 1.76426147e-14 12.4950136 15.0636266 -8.82130735e-15 15.0636266"></polygon>
    </defs>
    <g id="Pages" stroke="none" stroke-width="1" fill="none" fill-rule="evenodd">
        <g id="4.-Login" transform="translate(-198.1988, -178.1843)">
            <g id="LogoGreen" transform="translate(198.1988, 178.1843)">
                <path d="M124.41864,85.8426079 C123.170943,85.6290718 122.647035,86.1393237 121.62529,86.1529801 C121.013236,84.4893853 119.895896,83.3298349 119.452685,81.4973976 C119.956729,80.034924 121.311193,79.4241116 121.62529,77.7729317 C122.685521,76.8678865 122.82581,75.0416567 123.797895,74.0484658 L125.660128,74.0484658 C126.299495,75.283747 125.756964,76.7002855 125.660128,78.0833039 C125.333617,79.4452169 126.710428,79.1025661 126.591245,80.255909 C124.648315,80.8990001 125.302579,84.1392855 124.41864,85.8426079 M125.660128,96.0848892 C125.689924,97.5622607 124.234899,97.5572947 124.108267,98.8782386 C124.042468,100.910556 125.944429,100.971388 125.349756,103.533821 C123.625328,103.292972 121.980356,102.972668 120.383801,102.602705 C120.670585,100.659775 120.010113,99.6653424 119.763057,98.2574943 C119.960454,96.9030302 121.353404,96.7428782 122.246034,96.0848892 C122.434741,94.9278218 122.902782,94.0513308 123.487523,93.2915397 C125.159808,93.2754004 125.814073,94.2760402 125.660128,96.0848892 M112.003753,88.6359573 C112.136592,89.1238624 112.979563,88.9016359 112.624497,89.877446 C110.90876,89.7309503 108.460545,90.316933 107.658543,89.2567017 C108.726223,88.5651925 108.977004,87.0555423 109.831148,86.1529801 C111.679725,85.5992761 111.93423,86.4633522 113.555614,86.7737244 C113.425258,87.7805717 112.265707,87.7594664 112.003753,88.6359573 M106.417054,76.2210709 C106.451816,71.8063373 109.487256,70.3935232 111.693381,68.1513948 L112.93487,68.1513948 C114.440795,70.095566 112.500349,73.0887951 113.245242,75.2899544 C111.067671,75.7430978 108.554898,77.5867084 106.417054,76.2210709 M100.209611,72.8069772 C100.496395,70.9199144 101.76023,70.0123862 102.071844,68.1513948 C102.439325,67.793846 103.16932,67.8000535 103.934077,67.8410226 C104.280452,66.4282085 105.427588,65.8173961 105.175566,63.8061845 C106.552376,63.0526009 108.6567,61.5764709 110.451892,62.2543237 C110.085653,63.6460325 109.130948,64.4505171 108.900032,65.9787896 C106.498992,66.6814722 105.211569,68.4977701 104.554821,70.9447442 C102.229513,70.5536753 102.61065,74.2793827 100.209611,72.8069772 M98.3473781,97.9471221 C95.7588743,97.7894531 94.9233524,98.2140422 94.6229122,100.740472 C92.8773791,101.580959 91.1790227,102.468624 90.2777019,104.154565 C89.2323685,104.350721 88.687355,105.045954 87.1739803,104.77531 C87.4111046,103.66666 87.9747405,102.884522 88.7258411,102.292332 C88.2640073,101.926093 87.8505916,101.512678 87.4843525,101.050844 C87.9896383,100.314641 88.1733787,99.2556512 88.4154689,98.2574943 C89.3925205,98.1085157 89.6296448,98.6982228 90.2777019,98.8782386 C90.6364921,98.0365093 90.427922,98.1060327 90.2777019,97.0160057 C91.8034914,98.0228529 91.3217939,96.0004679 92.450307,95.774517 C93.326798,95.726099 93.2287204,96.651008 93.6917957,97.0160057 C94.3820634,96.4647847 94.7905131,95.6305043 94.9332843,94.5330284 C95.8594348,94.5379943 95.9897911,95.3387545 96.7955173,95.4641449 C97.0214682,94.514406 96.2604357,94.5516507 96.4851451,93.6019119 C97.6533859,93.4678311 97.8992007,94.2574179 98.3473781,94.8434005 C99.1406893,94.8086389 98.9631564,93.8042745 98.9681224,92.9811676 C100.516259,92.984892 100.960712,94.0935414 102.692588,93.9122841 C102.618099,96.6299027 99.4734083,96.2798029 98.3473781,97.9471221 M93.6917957,117.190196 C93.8407743,118.166006 93.2510672,118.40313 93.0710513,119.052429 C93.8122201,119.655792 94.752027,118.539694 94.9332843,119.983546 C95.5503042,119.97858 95.3280777,119.135609 96.174773,119.362801 L96.174773,121.225034 C96.6229504,122.048141 96.8687651,120.085348 98.0370059,120.60429 C97.9985198,121.160477 98.4181429,121.258554 98.3473781,121.845778 C99.5789348,123.304528 100.90112,124.672648 102.071844,126.190989 C103.228911,125.861994 103.074967,126.844012 103.623705,127.122105 C101.904243,127.798716 100.181057,125.811093 99.2784946,124.639128 C97.5180637,124.226954 95.9575124,123.6149 94.6229122,122.776895 C93.0350482,123.020227 92.3696103,122.341132 90.8984462,122.466523 C90.7954027,121.742735 90.5806251,121.12944 89.9673297,120.914662 C89.4434215,121.424914 89.5824683,122.598121 89.0362133,123.087267 C88.5011317,122.87249 87.2286058,121.823432 86.553236,122.776895 C85.8505534,122.445417 85.4259643,121.834605 85.3117473,120.914662 C84.2142714,120.357234 82.6475127,120.269088 82.2080257,119.052429 C81.5090676,118.907175 81.250838,120.735888 81.8976536,120.914662 C81.250838,121.935166 80.5891246,120.390754 80.0354206,120.293918 C78.412795,121.670729 76.9714267,123.230038 73.8279774,123.087267 C74.2401517,121.015223 76.3097132,120.601807 77.5524433,119.362801 C77.640589,118.86124 77.259452,118.82772 77.2420712,118.431685 C75.4952967,119.270931 73.1774374,119.540334 71.3450001,120.293918 C65.5832514,120.089072 61.9816928,120.778098 57.3782529,121.225034 C57.7246283,120.20453 59.4502975,119.593718 61.1027189,119.362801 C63.1971102,119.068568 65.7024343,119.583786 67.9309064,119.362801 C70.2226944,118.240495 72.8534088,117.457116 75.6902104,116.879824 C76.6188439,116.35964 77.1663404,115.458319 77.8628155,114.707219 C77.6467965,111.553838 78.0502803,109.019959 79.012434,107.044751 C78.4798354,105.857888 77.8864038,104.704545 77.1204053,103.63314 C77.0074298,103.475471 76.9515628,103.321526 76.9279746,103.173789 C76.8311384,103.184963 76.7417513,103.189929 76.6213269,103.223449 C75.9111954,102.277435 75.127816,101.407151 74.7590939,100.119727 C73.8863274,100.437548 73.4369085,100.47231 73.5176053,99.1886108 C72.7900929,99.2866884 72.3530889,99.6789988 71.3450001,99.4989829 C71.850286,98.4983431 71.6144032,97.6963414 70.1035115,97.9471221 C70.0166073,97.4455607 70.3977443,97.4120405 70.4138837,97.0160057 C70.6361101,96.5132028 68.9501686,96.5132028 69.172395,97.0160057 C68.2698328,96.7453611 68.8235367,96.5516889 68.8620229,95.774517 C68.465988,95.342479 67.3970663,95.5845693 66.9997899,95.1537727 C67.3896173,94.7924995 67.7099214,93.1276632 66.3790456,93.6019119 L66.3790456,92.0500511 C66.8706751,92.0239798 67.5634257,92.1990297 67.6205342,91.7396789 C68.5901369,92.4262222 69.0407972,93.6304661 70.7242558,93.6019119 C72.2227326,92.6161699 71.6764776,89.5881791 72.8968609,88.3255852 C72.3543304,87.0046413 72.6659441,84.8320361 72.5864888,83.0492584 C73.4878095,82.7090906 74.0787581,82.057309 74.7590939,81.4973976 C75.62317,81.3571094 74.5157621,83.1883052 75.3798382,83.0492584 C75.3500425,83.8475356 74.1681453,83.4924699 74.1383496,84.2907471 C73.8664636,85.2876625 74.9440757,84.9338382 75.0694661,85.5322357 C75.183683,86.0598684 74.8273758,86.1182184 74.4487217,86.1529801 C74.5828025,87.3534996 74.7888896,87.2579049 74.1383496,88.015213 C74.0241326,88.5428457 74.3804399,88.6011956 74.7590939,88.6359573 C74.8149609,89.7259844 73.7112775,89.656461 73.5176053,90.4981903 C73.3835245,91.6664311 74.1731113,91.9122459 74.7590939,92.3604233 C74.2600155,92.8955049 74.1482815,93.8191724 73.5176053,94.2226562 C73.8317019,94.7366325 74.8360662,94.5590996 75.3798382,94.8434005 C75.1017448,96.0563349 74.8348247,96.9464823 76.6213269,96.7056335 C76.8485193,97.5523287 76.004307,97.3301023 76.0005825,97.9471221 C76.7169215,98.6671855 77.0024639,97.3723129 78.1731877,97.63675 C78.3221663,98.61256 77.7312177,98.8496844 77.5524433,99.4989829 C78.9007,99.605751 79.2855615,98.7491238 80.3457928,98.5678665 C80.4736661,99.3152426 79.779674,99.2419948 80.0354206,100.119727 C80.9131531,100.375474 80.8399053,99.6814818 81.5872814,99.8093551 C81.7375016,100.786407 80.6350596,100.510796 80.9665371,101.671588 C81.0012988,102.430138 81.9932482,101.737387 81.8976536,101.361216 C82.5953702,101.490331 81.906344,103.00743 82.5183979,103.223449 C83.5128303,103.079436 83.6133909,102.041552 84.691003,101.98196 C85.023722,103.141511 83.9200386,102.8659 84.0702587,103.844193 C84.1633704,104.405346 85.3763048,103.530097 85.6221195,103.223449 C86.7630476,104.184361 84.5544393,104.410312 85.0013752,105.706426 C85.0398613,106.391728 86.3185946,105.836782 86.8636081,106.016798 C87.0324506,107.115516 85.7648907,106.779072 85.9324917,107.879031 C86.6413817,108.962851 87.0324506,107.145311 88.1050968,107.568659 C88.2540754,108.751798 86.6686944,108.200577 87.1739803,109.741264 C87.2248813,110.10502 87.7400991,110.003218 88.1050968,110.051636 C88.1001308,110.977787 87.2993707,111.106902 87.1739803,111.913869 C87.2447452,112.308663 88.1001308,112.319836 88.1050968,111.913869 C88.8549559,112.194446 88.2366946,113.66561 87.7947246,113.776102 C87.8294863,114.569414 88.8350921,114.391881 89.6569576,114.396847 C90.1622435,115.413626 89.5861927,115.582468 89.6569576,116.879824 C90.6203528,116.910861 90.5433805,115.902772 91.8295627,116.25908 C91.8233553,116.990316 92.3646443,117.171574 92.1399349,118.121313 C92.6849484,119.040014 92.7842675,116.931966 93.6917957,117.190196 M107.658543,120.60429 C107.83111,121.465883 108.859062,121.473332 109.520776,121.845778 C108.929827,122.951945 105.200395,122.663919 104.554821,121.845778 C103.17801,121.935166 101.540487,122.699923 101.4511,120.914662 C103.750337,120.676296 104.92106,120.30385 107.658543,120.60429 M66.0686734,77.1521874 C64.6744817,77.3048905 63.7433652,76.9945184 62.6545797,76.8418152 C61.9444482,74.9659259 59.9518589,74.3724943 59.2404859,72.496605 C58.2299141,72.1614031 57.6277922,71.4202344 56.4471365,71.2551164 C56.4558269,68.7870369 57.698557,66.9843954 56.1367643,65.3580453 C55.9766123,64.7124712 56.6805363,64.5411458 56.7575086,64.1165567 C56.8977968,63.3455922 56.1479377,62.4703427 56.4471365,61.3232072 C56.8444128,60.8924107 57.9133345,61.1332595 58.3093694,60.7024629 C58.8605904,60.3213259 59.2094487,59.7390677 59.8612302,59.4609743 C60.5850181,59.925291 61.199555,59.3566892 61.413091,59.7713464 C62.8023168,60.1413101 62.6719605,62.0308558 64.5168126,61.9439516 C64.3281063,65.7540802 66.9451644,66.7584445 68.5516507,68.7721391 C68.4498486,69.7963672 67.7322682,71.4165099 68.8620229,71.8758607 C68.7813261,72.829324 68.189136,73.2712939 67.9309064,74.0484658 C66.6347922,74.3762188 65.8290661,73.3954428 65.1375569,74.0484658 C65.0146496,75.5171469 66.4125658,75.4637629 66.0686734,77.1521874 M62.9649518,48.5979487 C63.9146906,48.3732392 63.8786875,49.1330303 64.8271848,48.9083208 C65.9246607,48.1299075 66.552854,47.8853342 68.2412785,48.2875765 C68.194102,49.0597825 68.7291836,49.2484887 68.8620229,49.8394373 C70.2363508,49.9871745 70.4064347,49.4123652 71.3450001,49.8394373 C71.8105584,51.6445618 71.3909352,52.7991462 70.7242558,54.1846476 C69.8167276,54.2653443 69.7707925,53.4832065 68.8620229,53.5639032 C68.0687116,53.4347884 67.7422001,54.5781995 66.6894177,54.8053919 C65.5286259,55.0561726 64.088499,54.9121599 63.275324,54.1846476 C63.9581427,51.8245777 62.3752447,50.4887359 62.9649518,48.5979487 M73.5176053,63.8061845 C75.0073916,62.875068 75.68152,63.6770697 77.5524433,63.8061845 C78.4736279,63.6919676 79.0844403,63.2673785 79.4146763,62.5646959 C81.7548824,62.7310554 82.8213211,61.624889 84.0702587,60.7024629 C84.4712595,61.129535 85.4185154,61.0103521 86.2428638,61.0128351 C86.1758234,63.8434292 84.9256444,65.4884016 83.7598865,67.2202783 C84.0615683,68.5735009 85.4421037,68.8478699 86.2428638,69.7032556 C85.737578,71.5779034 84.7940466,73.0130643 82.8287701,73.4277215 C82.3669363,74.3104199 82.2638927,75.55315 81.5872814,76.2210709 C79.5946922,76.0907146 78.6685416,77.0255556 76.931699,77.1521874 C76.6250513,76.2173465 75.8342231,75.7679276 76.0005825,74.358838 C76.1681835,72.4568774 78.0180016,72.2371339 78.793932,70.9447442 C78.4984577,69.2737005 77.4158796,68.3910021 75.6902104,68.1513948 C75.0198065,67.0626092 73.979439,66.3450288 72.8968609,65.6684175 C73.1451587,65.0886423 73.4158032,64.5312139 73.5176053,63.8061845 M81.2769093,44.5631106 C82.4364597,44.2303916 82.1620907,45.334075 83.1391422,45.1838549 C84.5134702,45.1093656 84.9666135,44.1136917 85.3117473,43.0112498 C87.4657301,43.4445293 88.5594816,44.9355572 89.3465854,46.7357157 C90.2963242,46.5110063 90.2590796,47.2707973 91.2088184,47.0460879 C90.9580377,48.7456858 92.5930782,48.558221 92.450307,50.1498095 C92.5297623,51.2100408 94.094038,50.7817272 94.31254,51.7016703 C94.4180665,52.3236561 94.2492241,52.6725144 93.6917957,52.6327868 C94.0307221,54.0071147 93.166646,54.1759571 93.0710513,55.115764 C91.9611605,54.9841662 91.4149055,54.2889326 89.9673297,54.4950197 C89.5737778,51.78485 86.2664521,51.9896956 84.0702587,51.080926 C84.7543189,47.2931441 80.7356202,48.2081212 80.6561649,45.1838549 C80.9330169,45.0460497 81.2111104,44.9107274 81.2769093,44.5631106 M82.5183979,83.6700028 C84.3359373,83.8177399 83.6829143,86.4372809 85.0013752,87.0840965 C86.3136287,87.74581 86.9716177,86.2597481 88.4154689,86.1529801 C88.8276432,86.6719223 89.2385759,87.1933475 89.0362133,88.3255852 C90.6588389,88.942605 91.7364511,88.182814 92.450307,87.0840965 C93.9165051,88.3504149 94.6899525,89.6043185 97.4162616,88.9463295 C97.2635585,91.2766037 95.3057309,91.8005119 94.31254,93.2915397 C91.7538319,94.1432009 89.1789845,94.9861717 86.8636081,96.0848892 C85.1453879,95.7484458 82.7306925,94.514406 80.9665371,93.9122841 C79.883959,93.5423204 78.791449,93.2505706 77.8628155,92.3604233 C77.5574093,91.1189346 77.5574093,90.4969488 77.8628155,89.2567017 C78.7045448,88.4422851 80.3656566,88.4484925 81.2769093,87.7048409 C80.9292924,85.5980346 81.9448302,84.8543829 82.5183979,83.6700028 M95.8644008,75.9106988 C96.6589535,76.7722919 97.5652402,77.5209095 97.7266338,79.0144204 C98.6167811,79.6761338 99.8992389,79.9455368 100.519983,80.8766533 C99.9762112,82.8891064 95.8097753,82.9201436 94.9332843,81.1870255 L92.7606792,81.1870255 C91.2622024,80.7202258 90.542139,79.4750127 89.9673297,78.0833039 C90.0765807,77.0541098 91.7563149,77.5953989 92.7606792,77.4625596 C93.7873903,76.9361684 93.7712509,75.3694097 95.8644008,75.9106988 M100.519983,49.5290652 C101.406406,48.7593422 102.403321,48.1001117 103.313333,47.35646 C105.514492,47.4321908 107.639921,47.582411 107.348171,50.1498095 C104.763391,50.4614231 104.65414,53.2498066 102.692588,54.1846476 C101.575249,54.2678273 101.196595,53.6110798 100.209611,53.5639032 C100.464116,51.7786426 101.598837,51.1454834 100.519983,49.5290652 M53.653787,83.0492584 C50.6431771,82.9561468 47.7132639,82.7823384 46.8255995,80.5662812 C47.096244,79.3881084 48.849226,79.6922732 48.3774603,77.7729317 C49.9715317,77.1472215 50.8678865,77.8772168 52.4122984,78.0833039 C52.998281,79.5668828 53.7816603,80.853065 53.653787,83.0492584 M48.6878325,100.119727 L48.6878325,97.0160057 C49.9069743,96.371673 51.8039689,96.4076762 52.4122984,95.1537727 C53.163399,95.5398757 53.4166627,96.4250571 53.653787,97.3263778 C51.0677662,97.3251363 50.9312024,99.7758349 48.6878325,100.119727 M136.833526,91.1189346 C137.340053,90.0723597 137.965764,89.1474507 138.075015,87.7048409 C137.011059,86.2858193 137.089273,83.7246283 136.212782,82.118142 C135.820471,81.3720073 133.765807,82.2894674 133.419432,81.4973976 C133.850229,80.479377 135.076819,80.2571505 135.592037,79.3247925 C134.984949,76.8554716 137.277979,77.2862682 136.833526,74.9795823 C136.574055,74.1018498 135.614384,73.9230755 134.971293,73.4277215 C134.761481,72.7064166 133.939616,72.5971656 133.729804,71.8758607 C134.205294,70.3177924 132.893041,68.5486711 131.867571,67.5306504 C130.180388,67.1879996 130.232531,68.5846743 128.76385,68.4617669 C127.465253,67.5877589 127.035698,65.8447089 125.9705,64.737301 C122.941268,63.8843983 121.924489,66.6839552 120.073429,65.9787896 C120.130538,64.5870809 121.281398,64.2891236 121.935662,63.4958124 C122.126851,62.166178 120.92509,62.229494 121.004546,61.0128351 C121.163456,59.7167209 120.830737,58.9097533 120.383801,58.2194856 L117.900824,58.2194856 C118.104428,56.4640207 116.506632,56.5111973 116.348963,55.115764 C117.419127,54.5297814 118.742553,54.1983039 119.763057,53.5639032 C120.670585,51.8742372 120.013838,50.8512506 119.763057,48.9083208 C119.807751,47.6084822 121.067862,47.5228195 120.694174,45.8045992 C120.453325,45.7363174 120.334142,45.5451281 120.383801,45.1838549 C119.203146,44.5022777 117.719567,44.1236236 115.728219,44.2527384 C114.464384,43.6543409 114.14408,42.112412 112.624497,41.7697612 C109.795145,41.2669583 108.590901,43.7188983 106.417054,42.0801333 C105.248813,42.772884 104.237,43.6245452 102.692588,43.9423663 C101.593871,41.9373621 97.9947953,42.4327161 96.7955173,40.5282725 C95.3777372,40.4972353 93.6483436,40.7802947 93.0710513,39.9075282 C93.4708107,39.0657989 93.8308424,38.184342 93.6917957,36.8038066 C92.3571954,34.7019663 89.8940819,35.2420139 87.4843525,34.630562 C86.7046976,34.9887502 86.5073009,35.9297986 85.9324917,36.4934344 C84.9616476,36.8671225 84.3930458,37.6442944 82.8287701,37.4245509 C82.4401841,36.7777353 82.068979,36.1160219 81.5872814,35.562318 C80.4364215,35.7559902 79.7709835,36.4350845 78.793932,36.8038066 C77.2904892,35.6169435 75.6169626,34.6014057 72.8968609,34.630562 C72.559176,35.4307202 72.1134816,36.1234708 71.3450001,36.4934344 C71.4703905,38.3767727 70.9526897,39.6182613 70.1035115,40.5282725 L67.9309064,40.5282725 C67.5013513,40.0279526 67.0519324,39.5450135 66.6894177,38.9764117 C64.855739,39.0521425 64.2225798,37.9261123 62.0338353,38.3556674 C61.5868994,39.0459351 61.255422,39.8529027 61.413091,41.1490168 C60.5154947,41.2855806 59.9990355,41.8032813 59.8612302,42.7008776 C59.4937496,44.1186577 60.3578257,45.9076428 60.1716024,46.1149714 C58.191428,47.0473294 57.7817367,45.4184963 55.8263921,45.4942271 C54.8567895,46.3868574 54.0858251,47.4768844 52.4122984,47.6668322 C52.2422144,48.9045964 52.2422144,48.6016731 52.4122984,49.8394373 C51.5718106,50.0318681 51.6400924,51.1355515 50.5500654,51.080926 C50.5662048,52.0269403 50.2682475,52.661341 49.6189489,52.9431589 C49.1893939,54.3423166 50.8269174,54.4925367 49.9293211,55.4261362 C48.7772196,55.2337055 48.5102996,54.1560933 46.8255995,54.4950197 C45.9602819,55.5949787 44.8255613,56.426776 44.6529944,58.2194856 C45.2811876,59.660854 47.1297642,59.8805974 48.6878325,60.3920908 C48.6630027,61.5044646 46.65924,60.639147 46.2048552,61.3232072 C45.6523927,62.0109919 44.9832304,62.5845597 45.2737387,64.1165567 C45.675981,65.2363794 46.5586794,63.9489557 46.8255995,65.0476732 C46.6021315,65.9961705 47.1434206,66.1786693 47.1359717,66.9099061 C48.679142,68.0570416 50.4619197,68.9633283 51.7915541,70.3239999 C47.9789424,71.9230373 46.9646462,68.1464288 44.6529944,67.2202783 C43.5021344,67.0005348 43.3221186,67.7503939 42.1700171,67.5306504 C41.3965697,66.6491935 40.6889211,65.7019377 39.0662955,65.6684175 C37.5777506,66.2481927 36.5957331,67.3357367 36.8936904,69.7032556 C36.8663776,70.1911606 36.1028621,69.9453459 36.2729461,70.634372 C36.1401068,72.4221157 36.6255288,73.5928395 36.8936904,74.9795823 C38.132696,75.1496662 37.8285313,75.1496662 39.0662955,74.9795823 C39.1966518,76.0907146 40.87142,75.6586766 40.9285285,76.8418152 C40.3574437,78.393676 38.9880817,77.2204693 37.2040625,77.4625596 C37.15192,77.8238328 36.7136745,77.799003 36.2729461,77.7729317 C35.9104314,79.168365 34.0519229,79.0690459 34.1003409,80.8766533 C34.8328192,82.49183 36.0234068,82.9164192 35.9625739,84.6011192 C35.894292,86.5266681 33.9190836,86.9239445 33.4795966,88.6359573 C33.0736298,90.1803692 34.4355429,89.9556598 34.4107131,91.1189346 C34.7682618,92.6236188 35.0749095,94.1804456 35.9625739,95.1537727 L38.135179,95.1537727 C37.7925281,96.4213326 38.0718631,97.0420769 38.7559233,97.9471221 C39.9229227,98.9167248 41.6547993,97.4803224 42.1700171,97.9471221 C42.777105,100.312158 40.9893614,100.283604 40.9285285,101.98196 C41.1892411,102.652364 41.7330131,103.039709 41.5492728,104.154565 C42.9745017,104.797656 44.2681329,105.573587 45.5841109,106.32717 C45.3395376,107.399817 45.9292447,107.638182 46.2048552,108.189403 C47.7480256,108.612751 48.5909963,109.735057 50.8604376,109.430892 C51.0454194,108.786559 50.4768176,107.391126 51.1708097,107.258287 C52.9684853,106.779072 55.3049669,106.838664 56.7575086,106.016798 C57.3236274,104.616399 57.1982371,102.523249 58.6197416,101.98196 C59.990345,102.370546 60.866836,103.253245 62.6545797,103.223449 C64.2238213,102.5158 64.1592639,100.175594 64.8271848,98.5678665 C66.9824091,98.6895323 67.5485279,100.399062 67.9309064,102.292332 C69.0780419,102.594014 69.7136841,103.405948 71.3450001,103.223449 C71.1674673,104.64247 72.1060327,104.946635 72.2761166,106.016798 C73.4741532,106.365657 75.0024257,105.45937 75.3798382,106.016798 C76.0614155,108.910708 74.5616972,112.201895 73.5176053,114.396847 C71.4927373,116.002091 68.7415985,117.367729 65.7583013,117.500568 C64.6111658,117.551469 63.4466494,116.866168 62.3442075,116.879824 C62.1728821,116.881065 61.2889422,117.105775 60.7923467,117.190196 C59.1225445,117.474497 57.8016006,117.917708 56.7575086,118.431685 C55.3980786,119.099606 54.3490207,119.963682 53.0330427,120.293918 C54.0485804,123.061196 59.339805,123.235004 62.3442075,122.156151 C64.7986305,122.184705 67.5137662,121.953788 69.172395,122.776895 C68.9687909,123.607451 68.2834892,123.956309 67.9309064,124.639128 C67.9371138,125.782539 66.0463266,125.030197 66.3790456,126.501361 C67.6602619,127.310811 68.7776016,125.703084 70.7242558,126.190989 C74.1954581,124.902323 79.1527222,125.09972 82.8287701,124.018384 C83.7263664,124.672648 84.9591646,124.991711 85.9324917,125.570244 C90.4688912,125.701842 92.457756,126.480256 97.4162616,126.190989 C99.0165404,126.970644 100.956987,127.407648 102.071844,128.673966 C103.741646,128.96944 105.617536,129.060069 107.658543,128.984338 C109.101153,129.574045 111.890778,130.248174 113.245242,129.915455 C113.234068,127.857066 111.041599,127.979974 110.451892,126.501361 C108.922378,125.962555 106.969517,125.845855 106.417054,124.328756 C108.934793,123.419986 111.091259,125.405126 113.865986,125.259872 C114.900146,124.948259 115.998864,124.702444 116.969708,124.328756 C117.794056,124.501323 118.701584,124.163638 119.452685,124.018384 C120.25717,123.860715 121.6166,124.142532 121.62529,123.087267 C120.514158,121.611137 118.161537,122.395758 116.038591,122.156151 C114.810759,122.017104 113.672314,121.28835 112.624497,121.535406 C112.146524,120.357234 110.619493,120.22936 110.14152,119.052429 C108.091822,118.103932 105.252538,118.76937 102.692588,118.431685 C100.728553,118.170972 99.5342412,117.221233 98.0370059,116.879824 C96.7893098,114.506098 93.9301615,113.743824 92.7606792,111.293125 C93.5353681,106.790246 94.7197483,102.699541 97.1058894,99.8093551 C99.2486988,99.4691872 100.121465,97.857735 102.692588,97.9471221 C103.597634,96.5752772 105.577808,96.2798029 107.968915,96.3952613 C108.345086,97.1562939 109.415249,97.2245757 109.520776,98.2574943 C109.48229,99.5635403 108.319015,99.7447977 108.279287,101.050844 C108.528826,102.869625 110.996906,102.472348 111.383009,104.154565 C111.662344,105.571104 110.86655,105.913755 110.762264,106.947915 C111.658619,107.500377 111.554334,109.052238 112.93487,109.12052 C114.97836,107.891446 115.983966,109.555041 118.211196,109.741264 C119.05665,109.343988 119.189489,108.23658 120.073429,107.879031 C121.790408,108.145951 121.281398,106.189365 122.866779,106.32717 C124.262212,106.586642 124.417398,108.087601 125.349756,108.810148 C126.44599,109.351437 127.90474,109.05348 129.074222,108.810148 C129.980509,108.267617 129.670136,106.508428 130.626083,106.016798 C131.128886,105.381156 132.916629,106.030455 133.419432,105.396054 C134.271093,103.893853 132.878143,103.142752 132.798688,101.671588 L134.660921,101.671588 C136.312101,100.078758 137.572212,97.1091173 136.212782,94.2226562 C135.712462,93.4814875 133.479024,94.4734369 133.419432,93.2915397 C133.788154,91.7967874 134.886872,91.0345134 136.833526,91.1189346" id="Fill-1" fill="#0E3E20"></path>
                <path d="M14.1631507,93.95226 C14.3431666,94.1993162 14.5182165,94.5047224 14.6895419,94.8659956 C14.8621088,95.2297518 15.0321928,95.6382016 15.1973107,96.0950694 C15.3649117,96.5506957 15.4940265,97.0348763 15.5846552,97.5476111 C15.7795689,98.6413626 15.8031572,99.6817301 15.657903,100.664989 C15.5101659,101.648248 15.1786884,102.533429 14.6609877,103.31805 C14.1432869,104.103913 13.4579852,104.769351 12.603841,105.313123 C11.7509383,105.859378 10.7354006,106.235549 9.55722785,106.444119 C8.38029662,106.655172 7.29771853,106.650206 6.30825208,106.434187 C5.31878563,106.216926 4.44477763,105.820891 3.68622807,105.249807 C2.92643702,104.67748 2.29576079,103.943761 1.79419938,103.044923 C1.290155,102.148568 0.937572221,101.126823 0.732726596,99.9759629 C0.570091584,99.0609857 0.515466083,98.210566 0.567608606,97.4209792 C0.620992618,96.6338755 0.726519152,95.9262269 0.886671187,95.2967922 C1.10144872,95.3737645 1.37954218,95.4172166 1.72343453,95.425907 C2.06856837,95.4358389 2.35659374,95.4432878 2.58502765,95.4445293 L2.64834357,95.5624708 C2.50681386,95.7300717 2.35411076,95.9572641 2.19023426,96.2428065 C2.02759925,96.5295904 1.87862061,96.8573434 1.74453984,97.224824 C1.60921758,97.5910632 1.51362295,97.9933055 1.45527298,98.431551 C1.39816451,98.8722795 1.41306237,99.3415622 1.50120806,99.8393991 C1.64770372,100.656299 1.91338229,101.39126 2.30072675,102.044283 C2.68931269,102.696064 3.2020475,103.234871 3.84141415,103.656977 C4.48202229,104.077841 5.24677929,104.360901 6.13692665,104.503672 C7.02583251,104.64396 8.04633618,104.611681 9.19595466,104.408077 C10.3455731,104.203232 11.3139343,103.881686 12.0997966,103.442199 C12.8856589,103.000229 13.5064032,102.472597 13.9607881,101.856818 C14.4164144,101.239798 14.7131302,100.558221 14.8521769,99.8120864 C14.9912236,99.0647102 14.9874992,98.2825724 14.8410035,97.4656728 C14.7528578,96.9678359 14.6088451,96.5171755 14.4089655,96.1174162 C14.2090858,95.7176568 13.9918253,95.3563836 13.7547009,95.0335966 C13.5188181,94.7108095 13.2754863,94.4265086 13.0247056,94.1769694 C12.7726834,93.9299132 12.5541814,93.7213431 12.3667166,93.5549836 L12.4349985,93.456906 L13.6951095,93.4246273 C13.8279488,93.5301538 13.9831349,93.7076867 14.1631507,93.95226" id="Fill-3" fill="#0E3E20"></path>
                <g id="Group-7" transform="translate(0, 83.0346)">
                    <mask id="mask-2" fill="white">
                        <use xlink:href="#path-1"></use>
                    </mask>
                    <g id="Clip-6"></g>
                    <path d="M2.75697382,7.81268801 C1.863102,7.85862309 0.953090829,7.90828264 0.0244573262,7.96166665 C0.0517700763,7.78040931 0.0728753832,7.60163495 0.0927392014,7.43279249 C0.111361531,7.26519152 0.120051952,7.09510758 0.117568974,6.92502364 C0.116327486,6.75742267 0.103912599,6.5898217 0.080324315,6.42097925 C0.0567360309,6.25213679 0.0306647694,6.07584541 -0.000372446592,5.89334658 C0.929502545,5.92438379 1.84075521,5.95293803 2.73462703,5.97652631 C3.62849885,6.00135609 4.53975151,6.00756353 5.46838501,5.99639013 C7.24123079,5.97652631 8.77819373,5.94921356 10.0792738,5.92065933 C11.3803539,5.88962211 12.5448703,5.86230936 13.5703399,5.83499661 C13.5591665,4.83683974 13.5368197,3.88089349 13.504541,2.96467487 C13.4722623,2.05093923 13.3803921,1.06643874 13.2264475,0.0148978637 C13.4809527,0.0819382503 13.6920058,0.114216955 13.8608482,0.111733978 C14.0160343,0.110492489 14.2047406,0.0720063411 14.42945,-8.82130735e-15 C14.4083447,0.646815582 14.4021373,1.29487265 14.4108277,1.94168823 C14.4182766,2.5897453 14.4257256,3.2353194 14.434416,3.88213498 C14.4418649,4.55874629 14.4505553,5.20928634 14.4580043,5.83499661 C14.4654532,6.46194837 14.4865585,7.11248842 14.5238032,7.78661675 C13.6497952,7.75557954 12.7646138,7.7270253 11.863293,7.70219552 C10.9619722,7.67860724 10.0469951,7.67115831 9.11836162,7.6835732 L5.48949032,7.7270253 C4.56085682,7.73695721 3.64960416,7.76799442 2.75697382,7.81268801" id="Fill-5" fill="#0E3E20" mask="url(#mask-2)"></path>
                </g>
                <path d="M8.4097199,77.4152589 C8.46558689,77.0527442 8.5301443,76.6790561 8.60339213,76.2929531 C8.67663996,75.9043672 8.74119737,75.5281961 8.79706436,75.1681644 C8.85665581,74.778337 8.91376429,74.3885095 8.96590681,73.9974406 C9.01929082,73.6088547 9.06770888,73.2165443 9.11364396,72.8254753 L3.45990469,74.3289181 L8.4097199,77.4152589 Z M16.3155196,69.1680498 C16.2571696,69.3592391 16.214959,69.5404964 16.1888877,69.7155463 C16.161575,69.8893547 16.1342622,70.073095 16.1044665,70.2667673 C16.0734293,70.461681 16.0461165,70.6466628 16.0188038,70.8204712 C15.9927325,70.9955211 15.9778347,71.1817444 15.9753517,71.3803826 C15.6413912,71.4288006 15.2354244,71.500807 14.7574513,71.5976431 C14.2807197,71.6969622 13.7791583,71.8074547 13.2540086,71.932845 C12.7301004,72.0594769 12.1975017,72.1873502 11.6574542,72.318948 C11.1186481,72.4493043 10.6046718,72.5709702 10.1180083,72.6802212 C10.03607,73.1234326 9.95661475,73.5728515 9.87964245,74.0309608 C9.80142867,74.4903116 9.72818084,74.9471794 9.65741598,75.4065302 C9.59161709,75.8373268 9.52954265,76.2631574 9.47243418,76.6815391 C9.4153257,77.0986792 9.3607002,77.5245099 9.30855768,77.9577894 C10.3253369,78.5710848 11.296181,79.1309962 12.22109,79.643731 C13.1459991,80.1564658 13.9144805,80.5500177 14.5265344,80.8293526 C14.461977,81.0627525 14.408593,81.3172576 14.3663824,81.5953511 C14.3229303,81.874686 14.2981005,82.1329157 14.2894101,82.3737645 C12.0286593,80.8740462 9.77784038,79.4041237 7.5357119,77.9627553 C5.29358341,76.5226285 3.01172729,75.0700868 0.688902047,73.6038887 L0.748493501,73.2066124 C1.60760364,72.9968008 2.53499565,72.7708498 3.53315252,72.5250351 C4.53255088,72.2792203 5.54312263,72.0284396 6.56362629,71.7714515 C7.58537144,71.5157048 8.59966766,71.2587167 9.60775644,71.000487 C10.6146037,70.7422574 11.5519276,70.4989256 12.4197282,70.2667673 C13.2887703,70.0395748 14.0647007,69.8310047 14.7475194,69.64354 C15.4315797,69.4573167 15.9542464,69.2971646 16.3155196,69.1680498 L16.3155196,69.1680498 Z" id="Fill-8" fill="#0E3E20"></path>
                <path d="M10.4041714,62.6761816 C10.4935586,62.461404 10.5841873,62.2217967 10.6748159,61.9548767 C10.8175871,61.5427024 10.9181477,61.0982495 10.9789806,60.6202764 C11.0398136,60.1423032 11.0174668,59.6755035 10.9119403,59.2236017 C10.8076552,58.7716998 10.6015681,58.3545596 10.2936789,57.9734226 C9.98703122,57.5922856 9.53264638,57.2980528 8.93424885,57.0919657 C8.4153066,56.9119498 7.95223134,56.8622903 7.54750604,56.9392626 C7.14153925,57.0149934 6.7864735,57.1714209 6.4810673,57.4097868 C6.17690258,57.6456696 5.92612188,57.931212 5.72872518,58.2639309 C5.53256998,58.5991329 5.37365943,58.9393008 5.25447652,59.2869176 C5.09432449,59.7512343 4.97141711,60.1398203 4.88699588,60.4526754 C4.80133317,60.7655305 4.73553427,61.0336921 4.6883577,61.2546771 C5.41090409,61.5327705 6.12600155,61.8096225 6.83613305,62.0815085 C7.54502306,62.3583605 8.25887903,62.6178316 8.97770095,62.8648878 L10.1149045,63.2571982 C10.2191896,63.0846313 10.3160257,62.8909591 10.4041714,62.6761816 M5.81314641,63.6619235 C4.95651925,63.4061769 4.08251125,63.1442228 3.18988091,62.8810272 C3.35003295,62.5060976 3.50397754,62.133651 3.65171469,61.7686534 C3.80069332,61.4048972 3.94098154,61.0274846 4.07382082,60.6413817 C4.20666011,60.2552787 4.32087706,59.8704172 4.4152302,59.4855558 C4.51082483,59.1031773 4.62380029,58.7183158 4.75663958,58.3322128 C4.94907032,57.7735429 5.18619465,57.2608081 5.46552959,56.7902839 C5.74734751,56.3222427 6.07510051,55.9398642 6.45251306,55.6468729 C6.82868412,55.3513986 7.25451472,55.1614508 7.72876338,55.0807541 C8.20301204,54.9988158 8.74057662,55.0608902 9.33897415,55.2657359 C9.9783408,55.4867208 10.4774192,55.8194398 10.8374509,56.2626512 C11.1987241,56.7071042 11.4569538,57.1875603 11.6146228,57.7027781 C11.7722919,58.2167544 11.8529886,58.7406626 11.8554716,59.2695367 C11.8591961,59.7996524 11.8219514,60.2664521 11.7424962,60.6699359 C11.9970013,60.5805487 12.3520671,60.4563999 12.8076934,60.2999723 C13.2620783,60.1447862 13.7661226,59.9672533 14.3173436,59.7710981 C14.8685646,59.5749429 15.4446153,59.3700973 16.0454958,59.1615272 C16.6463763,58.9504742 17.222427,58.7481115 17.773648,58.5494733 C18.3248689,58.3533181 18.8326378,58.1633704 19.2969545,57.982113 C19.7612713,57.7983727 20.11882,57.6469111 20.3696007,57.5252452 C20.2740061,57.715193 20.1933093,57.9113482 20.123786,58.1099863 C20.0542626,58.3086245 19.9859807,58.5097457 19.9176989,58.7083839 C19.8531414,58.8933657 19.7873425,59.0870379 19.7178192,59.2869176 C19.6495373,59.4880387 19.5961533,59.6841939 19.5589086,59.8791077 C19.2112918,59.9821512 18.6873836,60.1423032 17.9884255,60.3545978 C17.2907089,60.5681339 16.5371253,60.8114656 15.7301577,61.0833516 C14.9219486,61.3564791 14.1137395,61.6395385 13.3055304,61.9337714 C12.4973212,62.2292457 11.7996046,62.5123051 11.213622,62.7879155 L10.9529094,63.5452236 L12.410417,64.046785 C13.2881495,64.3509497 14.1584331,64.6302847 15.0212677,64.8897558 C15.8841023,65.1504684 16.734522,65.4012491 17.5725268,65.6483054 C17.440929,65.9437797 17.3155387,66.2653252 17.1963558,66.6104591 C17.0771728,66.9555929 16.9778538,67.2870704 16.89964,67.6024085 C16.0889479,67.2796214 15.2633579,66.9531099 14.4228701,66.6265984 C13.5836238,66.3013284 12.7245137,65.9872318 11.8467812,65.6843085 L8.41406511,64.5024114 C7.53633264,64.2007296 6.66853208,63.9189117 5.81314641,63.6619235" id="Fill-10" fill="#0E3E20"></path>
                <path d="M10.8606668,50.4395729 C10.0487332,50.0497455 9.23431666,49.6636425 8.41865862,49.278781 C8.73896269,48.7337675 9.05554229,48.1875125 9.36591445,47.6437405 C9.6775281,47.10121 9.98169282,46.549989 10.2771671,45.9888362 C10.5726414,45.4301663 10.8557008,44.8714964 11.1275868,44.3128265 C11.3982314,43.7566396 11.6688759,43.1917622 11.9395204,42.6181945 C12.1058799,42.7547582 12.2834128,42.8702167 12.4696361,42.9707773 C12.6558593,43.0688549 12.853256,43.1495516 13.0593432,43.2103846 C12.8234603,43.5952461 12.6074413,43.9465873 12.4075616,44.2631669 C12.2076819,44.5785051 11.9991119,44.9149485 11.7806099,45.2675313 C11.5608664,45.6213555 11.3274665,46.0111829 11.0791688,46.4357721 C10.8296296,46.8628442 10.5453287,47.3805449 10.2225416,47.9888744 C10.6136105,48.2123423 10.9848156,48.4283613 11.3361569,48.6381729 C11.6862567,48.8479845 12.0922235,49.0739354 12.5528158,49.3185087 C13.0369964,49.5730139 13.5124865,49.8200701 13.9755618,50.0559529 C14.438637,50.2943188 14.7887368,50.4743346 15.0246197,50.599725 C15.315128,50.05347 15.5683917,49.558116 15.7856522,49.1173875 C16.0029127,48.6741761 16.1990679,48.2682093 16.3703934,47.8982457 C16.5429603,47.5270406 16.7006293,47.1856312 16.842159,46.8690516 C16.9849302,46.554955 17.1152865,46.2545147 17.2357109,45.9664894 C17.4020704,46.1042946 17.5858107,46.2234775 17.7844489,46.329004 C17.9706722,46.4270816 18.1680689,46.5090199 18.374156,46.5698528 C18.1655859,46.8727761 17.9359105,47.2328078 17.6838883,47.6487065 C17.4318661,48.0646052 17.1897759,48.4867113 16.956376,48.9125419 C16.7242176,49.337131 16.5032326,49.7393733 16.2971455,50.1130614 C16.0898169,50.4892325 15.9271819,50.7896727 15.8092405,51.0143822 C15.9209745,51.0739736 16.0401574,51.141014 16.1680307,51.2155033 C16.2946626,51.2912341 16.4585391,51.3818628 16.6571772,51.4861479 L17.3846896,51.8710093 L18.5045123,52.4631994 C19.2134023,52.8393705 19.8006265,53.1460182 20.2637017,53.3806595 C20.726777,53.6190253 21.0806013,53.7928337 21.3226915,53.9045677 C21.5399521,53.4948765 21.7708689,53.0603554 22.0142007,52.5997632 C22.2637399,52.126756 22.4983813,51.6587148 22.7206078,51.1931565 C22.9415927,50.7300813 23.1439554,50.2881113 23.3264542,49.8672467 C23.508953,49.446382 23.6479998,49.0714524 23.7435944,48.739975 C23.8180837,48.8107398 23.9062294,48.8765387 24.0080315,48.9373717 C24.111075,49.0006876 24.2054282,49.0553131 24.2935739,49.1024897 C24.4909706,49.2067747 24.6635375,49.2738151 24.8075502,49.3023693 C24.4860046,49.8473828 24.1805984,50.3986038 23.8876071,50.9523077 C23.5946158,51.5060117 23.2966585,52.0671645 22.9949767,52.6394908 C22.6920535,53.2118171 22.3928548,53.7779359 22.0973805,54.3390887 C21.8019062,54.8977586 21.5138808,55.4713264 21.2370288,56.0560675 C20.4610984,55.5979582 19.685168,55.1435734 18.9117206,54.695396 C18.1382732,54.2459771 17.3412375,53.8064901 16.5206135,53.3719691 L13.3113654,51.6748541 C12.4907414,51.2415746 11.6738418,50.8281589 10.8606668,50.4395729" id="Fill-12" fill="#0E3E20"></path>
                <path d="M21.6460993,38.1338134 C23.7355247,38.5472291 25.8919905,38.9569203 28.1154966,39.3616456 C27.9963137,39.0847937 27.8274713,38.6850343 27.6064863,38.1623676 C27.3855013,37.6409424 27.1347206,37.0400619 26.8529027,36.3597261 C26.5710848,35.6793903 26.2631956,34.946912 25.9304766,34.1622912 C25.5977577,33.3764289 25.2600728,32.5781517 24.9186634,31.7699426 C24.5784955,30.9617335 24.2457766,30.1634563 23.921748,29.375111 C23.6002025,28.5917317 23.2972792,27.8567704 23.0142198,27.1764346 L23.1867867,26.9616571 C24.3339222,27.6928939 25.4400886,28.4005424 26.5040444,29.0883271 C27.5667587,29.7773533 28.6158166,30.4477572 29.6512181,31.1045047 C30.6853781,31.7600107 31.7096063,32.4055848 32.722661,33.04371 C33.7357157,33.6830766 34.7500119,34.3025794 35.7630667,34.9059429 C35.6351933,35.0189184 35.5209764,35.1405843 35.4191743,35.2647331 C35.3173722,35.391365 35.2130872,35.5204798 35.1063192,35.6508361 C35.0007926,35.7811924 34.8965076,35.9103072 34.7947055,36.0381806 C34.6929035,36.1623294 34.5997918,36.2988932 34.5166121,36.4491133 C32.9635098,35.3926065 31.4551011,34.3721028 29.9901445,33.3863608 C28.5239464,32.4018603 27.0105718,31.4198428 25.4462961,30.4452742 L25.4202248,30.4787944 C26.1887063,32.3484763 26.9596707,34.1982944 27.7331181,36.0257657 C28.5065656,37.8544784 29.3731246,39.700572 30.3303124,41.5590805 L30.209888,41.7068177 C28.3004785,41.2487084 26.3649977,40.8191533 24.4009626,40.4156695 C22.4381691,40.0134272 20.4418554,39.5900796 18.4132629,39.1443851 L18.3871917,39.1779053 C19.00297,39.8023741 19.6708909,40.4827099 20.3884713,41.2151882 C21.1072933,41.9501495 21.8211492,42.6664884 22.5300393,43.3679295 C23.2401708,44.0681291 23.9142991,44.7211521 24.5536657,45.3294815 C25.1930324,45.937811 25.7318385,46.4182671 26.1688425,46.7708498 C26.0062074,46.9285189 25.839848,47.1110177 25.672247,47.3195878 C25.5034045,47.5269164 25.3593919,47.7280376 25.240209,47.9204683 C24.4692445,47.0613582 23.6535865,46.1587959 22.7919934,45.2078156 C21.9304002,44.2593183 21.0613582,43.3120625 20.1799013,42.3623237 C19.2996858,41.4175508 18.4231948,40.4901588 17.5529113,39.5888381 C16.6813863,38.6837928 15.8446229,37.8346146 15.0388968,37.0400619 L15.2648477,36.7607269 C17.4287624,37.2622884 19.5554325,37.7191562 21.6460993,38.1338134" id="Fill-14" fill="#0E3E20"></path>
                <path d="M41.0079837,17.959623 C40.2581246,17.4605445 39.5057825,17.1489309 38.7484744,17.024782 C37.9924078,16.9006332 37.2499976,16.9478097 36.5237268,17.1638288 C35.7949729,17.3810893 35.1009808,17.7398795 34.4392673,18.2414409 C33.7899688,18.7355534 33.2623361,19.3041552 32.8576108,19.9460048 C32.4528855,20.5878544 32.2095537,21.290537 32.1251325,22.0515695 C32.0394698,22.8126021 32.1375474,23.6220527 32.4168823,24.4786798 C32.6962173,25.335307 33.1890883,26.2291788 33.8942538,27.1590538 C34.6006609,28.0901703 35.3281732,28.8052677 36.0780323,29.3055877 C36.829133,29.8034246 37.5814751,30.1162797 38.3375417,30.2404286 C39.0948497,30.363336 39.8360185,30.3174009 40.5635308,30.1001404 C41.2910431,29.8828799 41.9800693,29.5290556 42.6306094,29.0361846 C43.2910813,28.5333817 43.8249215,27.9610555 44.2296467,27.3192058 C44.6331306,26.6748732 44.8777038,25.9734321 44.962125,25.2123996 C45.0465463,24.4513671 44.9484687,23.640675 44.6691337,22.7852893 C44.3910403,21.9286622 43.8981693,21.0347903 43.1917622,20.1036739 C42.4853552,19.1737989 41.7578429,18.4587014 41.0079837,17.959623 M30.7768758,25.5128399 C30.5198877,24.5333053 30.4727111,23.5748761 30.6365876,22.6375522 C30.7992226,21.7039527 31.1654618,20.8051149 31.7353051,19.9484878 C32.3039069,19.0943436 33.0475586,18.3171717 33.9675016,17.6194551 C34.8973766,16.9142895 35.8508399,16.4015547 36.829133,16.0849751 C37.8061845,15.7659125 38.7683382,15.6541786 39.7143526,15.7497732 C40.6603669,15.8428848 41.5703781,16.1470496 42.4443861,16.6573014 C43.3183941,17.1700362 44.1166713,17.9025145 44.8392177,18.8547363 C45.5630055,19.8069581 46.0521521,20.7740777 46.3103817,21.7523708 C46.5673699,22.7319053 46.6145464,23.689093 46.4506699,24.626417 C46.2867934,25.5612579 45.9143468,26.4514053 45.3320887,27.2894101 C44.751072,28.1286564 43.9937639,28.8996209 43.0638889,29.6060279 C42.1451873,30.3037445 41.2028974,30.8202038 40.2382608,31.1554057 C39.2736241,31.4893662 38.3189193,31.6097906 37.3716635,31.5141959 C36.4268906,31.4210843 35.515638,31.1181611 34.64163,30.6066677 C33.7688635,30.0939329 32.9693448,29.3626961 32.2467984,28.4104743 C31.524252,27.4582526 31.033864,26.4911329 30.7768758,25.5128399" id="Fill-16" fill="#0E3E20"></path>
                <path d="M54.1405747,16.3253273 C51.653873,15.31848 49.1721372,14.3190817 46.6941258,13.3308567 C46.8480704,13.6933714 47.057882,14.177552 47.3248021,14.7833984 C47.5917221,15.3892449 47.9641687,16.2073859 48.4458663,17.2403045 C48.5700152,17.5097075 48.7276842,17.8399435 48.917632,18.2310124 C49.1075798,18.6245643 49.3074594,19.035497 49.5160295,19.4662936 C49.7233581,19.8983316 49.9381357,20.3340941 50.1578792,20.7723396 C50.3788641,21.2155511 50.5849512,21.6240008 50.774899,21.9976889 C50.9660883,22.376343 51.1349307,22.7065789 51.2814264,22.9859139 C51.427922,23.2664903 51.5309656,23.4564381 51.5917985,23.5520327 C51.374538,23.6215561 51.1461041,23.7134262 50.9040138,23.8251602 C50.6482672,23.9443431 50.4185918,24.066009 50.2137461,24.1926408 C50.180226,24.0548356 50.0982877,23.8040549 49.9704144,23.4452647 C49.842541,23.0864745 49.6786645,22.6618853 49.4812678,22.1714973 C49.2851126,21.6811093 49.0715766,21.1472692 48.8419012,20.5712185 C48.6122258,19.9951677 48.3775844,19.4228415 48.1354942,18.8517567 C47.8934039,18.2819134 47.6537966,17.7257265 47.4179137,17.183196 C47.1807894,16.6419069 46.9647704,16.1614508 46.7698567,15.7393447 C46.1987719,14.5164784 45.7059009,13.4649375 45.2900022,12.587205 C44.8741035,11.7094726 44.5525579,11.060174 44.3253655,10.6393094 L44.6307717,10.4965382 C45.8014955,10.9757528 47.0541576,11.4909706 48.3887578,12.0421915 C49.7233581,12.592171 51.0455435,13.13346 52.355314,13.6635757 C53.6663261,14.1936913 54.9078147,14.6964942 56.0810215,15.1657769 C57.2542282,15.6363011 58.2710074,16.029853 59.131359,16.3427082 L57.9196661,13.740548 C57.2964388,12.4009817 56.679419,11.1023846 56.0710895,9.84103215 C55.4602771,8.5796797 54.8618796,7.40398995 54.275897,6.31147995 C54.5614394,6.25685445 54.7923562,6.1860896 54.9711306,6.10415135 C55.1238337,6.03214501 55.3137815,5.90551316 55.5384909,5.72301433 C55.6440175,6.01600565 55.8116184,6.45052668 56.0412938,7.02657741 C56.2697277,7.60262814 56.516784,8.21592352 56.7824625,8.86894655 C57.0468996,9.52196957 57.3088537,10.1600947 57.5683248,10.7845635 C57.827796,11.4077908 58.043815,11.9043863 58.2163819,12.2755914 C58.3641191,12.594654 58.5416519,12.9770325 58.750222,13.4239684 C58.9525847,13.8572479 59.1661207,14.3091498 59.3920717,14.7784325 C59.6180226,15.2477152 59.845215,15.7194809 60.0748904,16.194971 C60.3033243,16.6692197 60.5168604,17.1136726 60.71674,17.5258468 C60.9153782,17.9380211 61.0879451,18.2955698 61.2294749,18.600976 C61.3598312,18.8815524 61.4591502,19.093847 61.5237077,19.2341352 L61.2555461,19.3582841 C58.9997613,18.3439879 56.6272765,17.3334161 54.1405747,16.3253273" id="Fill-18" fill="#0E3E20"></path>
                <path d="M63.4069218,4.52261897 C63.051856,4.61324764 62.6831339,4.71256673 62.2957894,4.82057624 C61.9096865,4.92610278 61.524825,5.04031973 61.141205,5.16074413 C60.7588265,5.28116853 60.3901044,5.40283441 60.0362801,5.52325881 C59.6812144,5.64244172 59.3671177,5.75914165 59.0915073,5.8746001 C59.0964732,5.61140451 59.0741264,5.38421208 59.0257084,5.19550581 C58.9859807,5.0440442 58.897835,4.84292304 58.7587883,4.58717638 C59.665075,4.38357224 60.5502564,4.18120959 61.4143325,3.98008843 C62.2784086,3.77772578 63.158624,3.56170676 64.0587033,3.33078987 C64.9575411,3.0986315 65.8340321,2.86150717 66.6869348,2.61941688 C67.5398375,2.3773266 68.412604,2.12902887 69.3052343,1.86831625 C69.3064758,2.16006609 69.3288226,2.38477553 69.3710332,2.54865203 C69.4169683,2.72618491 69.505114,2.92854755 69.6367118,3.15573997 C69.339996,3.18801868 69.007277,3.23891971 68.6397964,3.30471861 C68.2710743,3.37051751 67.8911787,3.44252385 67.4976268,3.52197912 C67.1040749,3.60267589 66.7117645,3.6883386 66.3219371,3.78145025 C65.9321097,3.87580339 65.5596631,3.96891503 65.2058388,4.05954371 C65.5261429,5.47359927 65.8700352,6.88889632 66.2350329,8.30543486 L67.1413196,11.8200892 C67.3722365,12.7201685 67.6180512,13.6016254 67.8762809,14.46446 C68.135752,15.3272946 68.3952231,16.1752313 68.6534528,17.0095117 C68.3331487,17.0641372 67.9954638,17.1361436 67.6416395,17.2267722 C67.2865738,17.3186424 66.9563378,17.419203 66.6509316,17.5272125 C66.4733987,16.6705853 66.2896584,15.8027848 66.0997106,14.9225693 C65.9085214,14.0423539 65.6974683,13.1522065 65.4653099,12.2533687 L64.5590232,8.7374729 C64.1940256,7.32093436 63.8091641,5.91556922 63.4069218,4.52261897" id="Fill-20" fill="#0E3E20"></path>
                <g id="Group-24" transform="translate(76.9316, 0)">
                    <mask id="mask-4" fill="white">
                        <use xlink:href="#path-3"></use>
                    </mask>
                    <g id="Clip-23"></g>
                    <path d="M11.7699842,14.1260302 C11.5018227,14.2712844 11.1753112,14.4053651 10.7954156,14.527031 C10.4117956,14.6486969 9.98472355,14.7616724 9.5092334,14.8659574 C9.03498474,14.9702425 8.5371478,15.0323169 8.01820555,15.0534222 C6.90707321,15.1005988 5.87415466,14.9838988 4.9194499,14.7095299 C3.96350365,14.4314364 3.13170626,13.9845005 2.42405773,13.3649977 C1.71392623,12.7479778 1.14780741,11.9782548 0.721976806,11.0583118 C0.296146202,10.1408517 0.0590218719,9.08434483 0.00936232629,7.89003276 C-0.0402972193,6.69572068 0.107439929,5.62059152 0.456298237,4.67085271 C0.803915056,3.71863092 1.31168391,2.90545587 1.98084629,2.23008604 C2.65000866,1.55471622 3.46194224,1.02708355 4.41788849,0.649671006 C5.37383474,0.272258459 6.43530753,0.0587224127 7.60230685,0.0115458444 C8.52969887,-0.0281817921 9.38011858,0.0326511512 10.1548075,0.187837231 C10.9282549,0.346747777 11.6172811,0.549110426 12.2181616,0.789959222 C12.1138766,0.99232187 12.0344213,1.26172491 11.9785543,1.60313428 C11.9202043,1.94330217 11.8767522,2.22636158 11.8444735,2.453554 L11.7190832,2.50073057 C11.571346,2.33685407 11.3677419,2.15559673 11.1057878,1.95695854 C10.8438337,1.7545959 10.539669,1.56340664 10.1932936,1.37966633 C9.8481598,1.19840898 9.46205683,1.04943035 9.03498474,0.932730416 C8.60791265,0.817271972 8.14111292,0.770095404 7.63458556,0.791200711 C6.80527114,0.824720904 6.04051414,0.991080382 5.34279753,1.28779617 C4.64383942,1.58451195 4.04171743,2.02151595 3.53891453,2.60004966 C3.03362865,3.17610039 2.65249164,3.8961638 2.39177903,4.75899841 C2.1323079,5.62059152 2.02678137,6.63612923 2.07519942,7.80312855 C2.12361748,8.97012787 2.31356524,9.97200921 2.64504271,10.810014 C2.97527869,11.6492604 3.41600716,12.3345621 3.96598662,12.8671607 C4.51596609,13.4022423 5.15160827,13.7871038 5.87291317,14.0254696 C6.59421807,14.2613525 7.36890699,14.3631545 8.19946289,14.3283928 C8.70474876,14.306046 9.16906552,14.2253493 9.59365463,14.0813366 C10.0170023,13.9373239 10.4043467,13.7684815 10.755688,13.5772922 C11.1057878,13.3873445 11.4211259,13.1837403 11.7017023,12.9677213 C11.9810373,12.7517023 12.2156786,12.5617545 12.4068679,12.400361 L12.4950136,12.4822992 L12.3572083,13.7324783 C12.234301,13.8504197 12.0393873,13.9820175 11.7699842,14.1260302" id="Fill-22" fill="#0E3E20" mask="url(#mask-4)"></path>
                </g>
                <path d="M104.36326,6.36796768 C104.203108,5.48030331 103.907633,4.72175375 103.471871,4.09107752 C103.03735,3.46040129 102.488612,2.95759839 101.829381,2.58266882 C101.167668,2.20649776 100.427741,1.95571706 99.6083581,1.82660224 C98.8013905,1.69872891 98.0267016,1.71362677 97.2842913,1.86757136 C96.5406397,2.02151595 95.8640283,2.33064662 95.2569404,2.79868784 C94.6498525,3.26424608 94.1333932,3.8961638 93.7088041,4.68947504 C93.2842149,5.48651075 92.9825332,6.45983784 92.8000344,7.61442228 C92.6200185,8.76776522 92.6076036,9.78826889 92.7677557,10.6759333 C92.9279077,11.5611147 93.2246235,12.3209057 93.660386,12.9528234 C94.094907,13.5822582 94.6424035,14.0850611 95.301634,14.4599906 C95.9621059,14.8336787 96.6958257,15.0844594 97.5015519,15.2110913 C98.3221759,15.3389646 99.1043137,15.3290327 99.8467239,15.1750881 C100.590376,15.022385 101.266987,14.7120128 101.874075,14.2439716 C102.481163,13.7771719 102.997622,13.1452542 103.422211,12.3507014 C103.845559,11.5561487 104.148482,10.5815801 104.329739,9.42823718 C104.510997,8.27489423 104.523412,7.25439057 104.36326,6.36796768 M91.8279488,4.22267531 C92.3555814,3.3610822 93.0135704,2.66212409 93.8031572,2.13076695 C94.5915025,1.6006513 95.4915818,1.24310258 96.5021535,1.06184523 C97.5139667,0.878104915 98.5903374,0.876863427 99.730024,1.05563779 C100.883367,1.23689513 101.912561,1.57085558 102.820089,2.05503615 C103.725134,2.53921672 104.473752,3.15499508 105.060976,3.90237124 C105.6482,4.65098889 106.060375,5.51630648 106.297499,6.50080697 C106.533382,7.48530746 106.559453,8.56788555 106.37323,9.74978274 C106.187006,10.9316799 105.830699,11.9534251 105.304308,12.8175012 C104.775434,13.6828188 104.117445,14.3792939 103.327858,14.910651 C102.539513,15.4420082 101.641916,15.7883835 100.633828,15.9510185 C99.6257389,16.112412 98.5444023,16.1024801 97.3898179,15.9199813 C96.2501313,15.7412069 95.2271447,15.4184199 94.315892,14.9565861 C93.4058808,14.4922693 92.6572632,13.8864229 92.0700391,13.1390467 C91.4828149,12.3904291 91.0706407,11.5251115 90.8335164,10.540611 C90.5976335,9.557352 90.5715623,8.47353242 90.7577856,7.29163523 C90.9427674,6.10973805 91.3015576,5.08923438 91.8279488,4.22267531" id="Fill-25" fill="#0E3E20"></path>
                <path d="M121.051846,9.89478861 C121.429259,8.8792509 121.6639,8.17036089 121.758254,7.76936006 C121.893576,7.8525398 122.021449,7.92827061 122.146839,7.99903546 C122.268505,8.06855882 122.396379,8.12815028 122.527976,8.1802928 C122.69806,8.2460917 122.907872,8.2895438 123.15617,8.30940762 C122.938909,8.75386055 122.68937,9.28770067 122.403828,9.90844499 C122.119527,10.5304308 121.822811,11.1995932 121.514922,11.9171736 C121.208274,12.6359955 120.892936,13.3734398 120.570149,14.1319893 C120.247362,14.8892974 119.939473,15.6255002 119.648964,16.3430806 C119.296382,17.2183301 118.856895,17.9545329 118.332986,18.5516889 C117.809078,19.1488449 117.216888,19.5982638 116.556416,19.9024285 C115.895944,20.2041103 115.173398,20.3468815 114.387535,20.3307421 C113.602915,20.3158443 112.763668,20.1333454 111.869796,19.7894531 C109.900796,19.0284205 108.643168,18.0327467 108.095671,16.793741 C107.546933,15.5572183 107.646252,13.9730788 108.391145,12.042564 C108.62827,11.4267856 108.856704,10.886738 109.073964,10.4186968 C109.292466,9.95313858 109.49607,9.46895801 109.690984,8.97236255 C110.115573,7.86867915 110.478088,6.88542015 110.783494,6.02258554 C111.085176,5.15850945 111.338439,4.42603115 111.540802,3.82515065 C111.687298,3.91205485 111.848691,4.00020055 112.024983,4.09207071 C112.202515,4.18269938 112.368875,4.25843019 112.525302,4.31926313 C112.670557,4.37513012 112.814569,4.41982371 112.961065,4.4533439 C113.106319,4.4868641 113.255298,4.5191428 113.410484,4.54769704 C113.271437,4.82703198 113.100112,5.19451262 112.895266,5.65013895 C112.689179,6.10576528 112.458262,6.62346605 112.204998,7.20324124 C111.950493,7.78549941 111.683573,8.41369266 111.407963,9.09154546 C111.131111,9.76939826 110.851776,10.4758053 110.568716,11.2107666 C110.396149,11.6577025 110.223583,12.1220192 110.052257,12.6049583 C109.87969,13.0903804 109.745609,13.5733195 109.648773,14.0575 C109.55442,14.5404391 109.514693,15.0221367 109.533315,15.5050758 C109.549454,15.9867734 109.66243,16.4448827 109.872241,16.8806452 C110.080811,17.3164077 110.401115,17.71865 110.831912,18.0873722 C111.261467,18.4560943 111.843725,18.7838473 112.579928,19.0669067 C113.301233,19.3462416 113.94929,19.4765979 114.522858,19.4554926 C115.095184,19.4368703 115.605436,19.3152044 116.053613,19.0954609 C116.499308,18.8757174 116.896584,18.5777602 117.247925,18.1991061 C117.596784,17.8216936 117.904673,17.4057949 118.170351,16.95141 C118.43603,16.4945422 118.66943,16.026501 118.870551,15.5460449 C119.070431,15.0655888 119.250446,14.6236188 119.406874,14.2151691 C120.126937,12.3516946 120.674434,10.9103263 121.051846,9.89478861" id="Fill-27" fill="#0E3E20"></path>
                <path d="M128.660806,21.9507607 C128.184075,19.3101143 127.703618,16.6793999 127.216955,14.0561344 C126.991004,14.3801629 126.69553,14.8171669 126.324325,15.3646634 C125.955602,15.9134014 125.46149,16.6657435 124.845712,17.6241727 C124.68556,17.8724705 124.489404,18.1828426 124.259729,18.5540477 C124.028812,18.9240113 123.787963,19.3113558 123.5347,19.7173226 C123.281436,20.1232894 123.028172,20.5367051 122.773667,20.9588112 C122.51792,21.3809174 122.282038,21.7732278 122.066019,22.1357425 C121.85,22.4970157 121.661293,22.8160782 121.501141,23.0892057 C121.340989,23.3648162 121.236704,23.552281 121.188286,23.6540831 C121.014478,23.5075874 120.815839,23.3635747 120.589889,23.2183206 C120.354006,23.0656174 120.126813,22.9377441 119.910794,22.8309761 C120.010113,22.7279325 120.177714,22.5280529 120.412356,22.2276126 C120.64948,21.9259309 120.921366,21.5634162 121.230497,21.1338611 C121.540869,20.7055475 121.877312,20.2412308 122.241068,19.7384279 C122.606066,19.2368665 122.963615,18.7303391 123.317439,18.2225703 C123.670022,17.7135599 124.013914,17.2144815 124.34415,16.7265765 C124.675628,16.234947 124.967377,15.79546 125.218158,15.4056325 C125.950637,14.2696704 126.576347,13.2913774 127.095289,12.4707534 C127.614231,11.6526124 127.992885,11.0318681 128.227527,10.6147279 L128.511828,10.7984682 C128.731571,12.0436813 128.962488,13.3782816 129.210786,14.7997861 C129.457842,16.2225321 129.707381,17.6303802 129.958162,19.0208475 C130.207701,20.4113147 130.447308,21.7285342 130.676984,22.9725058 C130.905418,24.2164774 131.115229,25.2853991 131.310143,26.179271 L132.864487,23.7670585 C133.664005,22.5243284 134.432487,21.308911 135.173656,20.1208064 C135.914824,18.9314603 136.588953,17.7979811 137.201007,16.717886 C137.398403,16.9301806 137.580902,17.0890911 137.74602,17.1958592 C137.888791,17.2864878 138.097361,17.3795995 138.37173,17.4727111 C138.180541,17.7185259 137.902448,18.0909725 137.53745,18.5925339 C137.172452,19.0928538 136.785108,19.6304184 136.375417,20.2039861 C135.964484,20.7763124 135.564725,21.3387068 135.174897,21.8899277 C134.787553,22.4436316 134.480905,22.891809 134.261161,23.2344599 C134.068731,23.5299342 133.841538,23.885 133.574618,24.2996572 C133.315147,24.7018995 133.048227,25.1240056 132.771375,25.5647341 C132.497006,26.006704 132.218913,26.451157 131.939578,26.8980929 C131.659001,27.3462703 131.398289,27.764652 131.15744,28.1519964 C130.914108,28.5405824 130.703055,28.8757843 130.520556,29.1613267 C130.352955,29.4220393 130.228806,29.6157115 130.143144,29.7460678 L129.896087,29.5846743 C129.547229,27.1364587 129.136296,24.591407 128.660806,21.9507607" id="Fill-29" fill="#0E3E20"></path>
                <path d="M143.467793,23.383811 C143.19839,23.1355133 142.914089,22.8772836 142.61489,22.6116051 C142.31445,22.344685 142.010285,22.0839724 141.702396,21.8269842 C141.392024,21.5724791 141.091584,21.3266643 140.798592,21.0945059 C140.50436,20.863589 140.234957,20.6624679 139.990383,20.4923839 C140.213851,20.3558202 140.390143,20.2118075 140.525465,20.0665533 C140.630991,19.9548194 140.751416,19.7698376 140.891704,19.5153324 C141.554659,20.1646309 142.203957,20.7977902 142.842083,21.4160515 C143.480208,22.0318299 144.139438,22.6550572 144.823499,23.2844919 C145.505076,23.9151681 146.179204,24.5210146 146.845884,25.1069972 C147.511321,25.6917384 148.195382,26.2901359 148.896823,26.8972238 C148.654732,27.0573759 148.475958,27.2001471 148.3605,27.3230544 C148.237592,27.4571352 148.115926,27.6433585 147.994261,27.8742754 C147.806796,27.6446 147.584569,27.3925778 147.330064,27.1194503 C147.074317,26.8450813 146.806156,26.5657464 146.528062,26.2764795 C146.246244,25.9909371 145.960702,25.7078777 145.671435,25.4297843 C145.380927,25.1541738 145.101592,24.8922197 144.83343,24.643922 C143.819134,25.680565 142.817253,26.7358303 141.824062,27.8109595 L139.36219,30.4801601 C138.733997,31.1642203 138.125667,31.847039 137.542168,32.5323408 C136.957426,33.218884 136.3851,33.8979783 135.825189,34.5671407 C135.606687,34.3262919 135.362114,34.0817186 135.092711,33.8334209 C134.823308,33.5863646 134.561353,33.3628967 134.304365,33.1655 C134.926351,32.5522046 135.555786,31.9264943 136.193911,31.2871277 C136.828312,30.6514855 137.461471,29.989772 138.090906,29.3069533 L140.551536,26.6377527 C141.544727,25.5626236 142.515571,24.4775625 143.467793,23.383811" id="Fill-31" fill="#0E3E20"></path>
                <path d="M147.189776,35.3186137 C147.323857,35.50732 147.479043,35.7121656 147.655334,35.9319091 C147.928462,36.272077 148.250007,36.5961055 148.622454,36.9015118 C148.993659,37.2094009 149.398384,37.4390763 149.837871,37.5917794 C150.274875,37.7444825 150.73795,37.7941421 151.224614,37.7382751 C151.712519,37.6799251 152.201666,37.4552157 152.697019,37.0579393 C153.124092,36.7152885 153.4146,36.3515323 153.567303,35.9691538 C153.720006,35.5842923 153.777115,35.2006723 153.738628,34.8158108 C153.701384,34.4309494 153.593374,34.0684347 153.417083,33.7220593 C153.23955,33.3769255 153.035946,33.0628289 152.807512,32.7772865 C152.499623,32.392425 152.235186,32.0820528 152.017925,31.8412041 C151.799423,31.6015967 151.608234,31.4029586 151.445599,31.2452895 C150.823613,31.7071233 150.209076,32.1652326 149.597022,32.6171345 C148.98621,33.0702778 148.385329,33.535836 147.791898,34.0113262 L146.854574,34.7636683 C146.94272,34.9424427 147.056937,35.128666 147.189776,35.3186137 M148.809919,30.9088461 C149.485288,30.3241049 150.171832,29.7219829 150.87079,29.109929 C151.102948,29.4463725 151.335106,29.7741255 151.56354,30.0944295 C151.794457,30.4159751 152.036548,30.7362792 152.291053,31.0528588 C152.546799,31.3719213 152.811236,31.6736031 153.085605,31.9591455 C153.358733,32.2434464 153.624411,32.5476111 153.880158,32.8654322 C154.24888,33.3260245 154.556769,33.8002731 154.803826,34.2881782 C155.04964,34.7773247 155.196136,35.2565393 155.244554,35.7332709 C155.290489,36.2087611 155.223449,36.6693534 155.038467,37.1125648 C154.855968,37.5595007 154.5158,37.9803654 154.022929,38.3751588 C153.495297,38.7985064 152.9478,39.0430797 152.38044,39.1113615 C151.811838,39.1771604 151.268066,39.1399158 150.747882,38.9971446 C150.227699,38.8568564 149.743518,38.6445618 149.294099,38.3652269 C148.843439,38.0834089 148.469751,37.804074 148.171793,37.5197731 C148.11096,37.7842102 148.026539,38.1504493 147.914805,38.6172491 C147.803071,39.0865318 147.683888,39.6067155 147.556015,40.1778003 C147.4269,40.7501265 147.291578,41.3447996 147.148807,41.9630609 C147.004794,42.5838053 146.86823,43.1797198 146.741598,43.7508046 C146.612484,44.3218894 146.50075,44.854488 146.406397,45.3436345 C146.313285,45.832781 146.25121,46.2176425 146.220173,46.493253 C146.110922,46.3107542 145.989256,46.1381872 145.8589,45.9743107 C145.724819,45.8091927 145.594463,45.6428333 145.460382,45.4789568 C145.338716,45.3262537 145.210843,45.1673431 145.079245,45.0022251 C144.946406,44.8371071 144.808601,44.686887 144.663346,44.5503233 C144.762666,44.201465 144.90792,43.6738323 145.10035,42.9699082 C145.294023,42.2647427 145.490178,41.4975027 145.691299,40.6706713 C145.89242,39.8413569 146.084851,39.008318 146.268591,38.1665887 C146.449849,37.3261009 146.582688,36.5849321 146.663385,35.9430825 L146.161823,35.3173722 L144.958821,36.2795259 C144.235033,36.8605426 143.53235,37.4465253 142.852015,38.0374739 C142.170437,38.627181 141.503758,39.2131636 140.849493,39.7904558 C140.669478,39.5222943 140.46339,39.2429593 140.234957,38.9586584 C140.006523,38.6718746 139.77933,38.4111619 139.557104,38.1790036 C140.262269,37.6662688 140.978608,37.1398776 141.702396,36.604796 C142.427425,36.0684729 143.152455,35.509803 143.877484,34.9287863 L146.70932,32.6605866 C147.434349,32.0808114 148.134549,31.4960702 148.809919,30.9088461" id="Fill-33" fill="#0E3E20"></path>
                <path d="M153.65669,45.6420884 C153.913678,45.1740472 154.199221,44.6575879 154.512076,44.093952 C154.827414,43.5278332 155.156408,42.9331602 155.500301,42.3099329 C155.846676,41.6842226 156.174429,41.0895495 156.488526,40.5246722 C156.802622,39.9597949 157.083199,39.449543 157.332738,38.9951582 C157.579794,38.5407734 157.767259,38.1956395 157.890166,37.9622396 C157.965897,38.14598 158.040387,38.3235128 158.1186,38.4998042 C158.195573,38.6748541 158.28496,38.8461796 158.383037,39.0162635 C158.482357,39.1863474 158.589125,39.3502239 158.7021,39.5041685 C158.816317,39.6568716 158.9355,39.8108162 159.059649,39.9684853 C158.319722,41.1305187 157.604624,42.292552 156.913115,43.4521024 C156.219123,44.6128943 155.504025,45.8307946 154.767823,47.1082865 C155.367462,47.1318747 156.018002,47.1455311 156.718201,47.1442896 C157.417159,47.1430481 158.131015,47.1355992 158.853562,47.1207013 C159.578591,47.1058035 160.298654,47.0772492 161.013752,47.0350386 C161.730091,46.9915865 162.420359,46.9406855 163.084555,46.8798525 C163.200013,47.2187789 163.308023,47.4732841 163.407342,47.6433681 C163.507903,47.813452 163.674262,48.031954 163.913869,48.3025985 C162.684796,48.2343167 161.578629,48.1796912 160.592887,48.1362391 C159.605904,48.0915455 158.716998,48.0617497 157.928653,48.0493348 C157.141549,48.0394029 156.432659,48.0331955 155.809431,48.0394029 C155.186204,48.0443689 154.628776,48.0592668 154.139629,48.085338 C153.688969,48.3472921 153.210996,48.62911 152.703227,48.9320333 C152.1967,49.236198 151.700104,49.5378797 151.214682,49.835837 C150.730501,50.1350358 150.282324,50.4168537 149.873874,50.6788078 C149.464183,50.9420034 149.138913,51.1580224 148.899306,51.3318308 C148.7615,51.0388395 148.598865,50.7346748 148.413884,50.4168537 C148.230143,50.1015156 148.045162,49.8097657 147.857697,49.5453287 C148.533067,49.2498544 149.323895,48.8463706 150.230182,48.3336357 C151.13771,47.8221424 152.082483,47.2796119 153.066983,46.7060441 C153.203547,46.4627124 153.399702,46.1088881 153.65669,45.6420884" id="Fill-35" fill="#0E3E20"></path>
                <path d="M157.0174,70.4985532 C156.80883,70.2750852 156.597777,69.9945088 156.382999,69.6543409 C156.168222,69.316656 155.950961,68.9293115 155.729976,68.4972735 C155.508991,68.0652355 155.322768,67.5996772 155.170065,67.1030818 C154.844795,66.039126 154.694575,65.0111734 154.720646,64.016741 C154.746717,63.0235501 154.968944,62.1048485 155.388567,61.2618777 C155.805707,60.4201484 156.406588,59.6764967 157.187484,59.0334056 C157.96838,58.389073 158.930534,57.8924775 160.075186,57.5398948 C161.217356,57.1910365 162.293727,57.0619216 163.300574,57.1575163 C164.308663,57.2543524 165.224881,57.5386533 166.046747,58.0141434 C166.869854,58.4908751 167.587434,59.1438981 168.193281,59.974454 C168.80161,60.8012854 169.2771,61.7770955 169.61851,62.8919523 C169.890396,63.7796167 170.048065,64.618863 170.091517,65.4059668 C170.134969,66.1955536 170.116347,66.9118925 170.033167,67.5549836 C169.812182,67.5053241 169.529122,67.4966337 169.186472,67.5276709 C168.842579,67.5599496 168.557037,67.5885038 168.328603,67.6145751 L168.251631,67.5040826 C168.372055,67.3203423 168.496204,67.0770105 168.624077,66.7728458 C168.750709,66.4699226 168.85996,66.1272717 168.948106,65.7461347 C169.038734,65.3649977 169.08467,64.9553064 169.089635,64.512095 C169.09336,64.067642 169.020112,63.6058083 168.872375,63.1216277 C168.629043,62.327075 168.273977,61.6305998 167.810902,61.0284778 C167.346585,60.4275973 166.771776,59.9570731 166.086474,59.6144223 C165.399931,59.2730129 164.60662,59.0880311 163.706541,59.0532694 C162.80522,59.0209907 161.797131,59.1761768 160.681033,59.5163447 C159.563693,59.860237 158.642509,60.297241 157.914996,60.8298397 C157.187484,61.3611968 156.636263,61.9620773 156.260092,62.6287567 C155.882679,63.2954361 155.670385,64.0092921 155.623208,64.7678416 C155.577273,65.5239082 155.674109,66.2998386 155.917441,67.0931498 C156.06642,67.5785719 156.263816,68.005644 156.510873,68.3805736 C156.757929,68.7530202 157.0174,69.0844976 157.291769,69.3774889 C157.564896,69.6679973 157.841748,69.921261 158.121083,70.13728 C158.399177,70.353299 158.64375,70.5320734 158.848596,70.6773276 L158.79397,70.7828541 L157.547516,70.9653529 C157.403503,70.8772072 157.22597,70.7220211 157.0174,70.4985532" id="Fill-37" fill="#0E3E20"></path>
                <path d="M168.503653,70.9968867 C169.381385,70.8280443 170.276499,70.6542359 171.187751,70.4729785 C171.187751,70.6579603 171.190234,70.8354932 171.1952,71.0055771 C171.200166,71.1781441 171.213823,71.3445035 171.238652,71.5121045 C171.264724,71.678464 171.299485,71.8448235 171.34542,72.0074585 C171.391355,72.171335 171.442256,72.3414189 171.498123,72.5189518 C170.573214,72.6145464 169.666928,72.7138655 168.778022,72.8131846 C167.890357,72.9112622 166.985312,73.0304451 166.066611,73.1682504 C164.31487,73.4339289 162.795288,73.6698118 161.510347,73.8796234 C160.225407,74.086952 159.075788,74.2756582 158.065216,74.4432592 C158.212954,75.4302427 158.365657,76.3750155 158.524567,77.2775778 C158.682236,78.177657 158.908187,79.1398107 159.206144,80.1615559 C158.945432,80.1292772 158.731896,80.1280357 158.564295,80.151624 C158.41035,80.1752122 158.229093,80.2372867 158.016798,80.3415717 C157.948516,79.6984806 157.865337,79.0553895 157.768501,78.4160228 C157.670423,77.7766562 157.574828,77.1360481 157.477992,76.4966814 C157.37619,75.827519 157.279354,75.1844279 157.186242,74.5661666 C157.093131,73.9454222 156.981397,73.3048141 156.852282,72.6406177 C157.720083,72.552472 158.602781,72.4581189 159.499136,72.3587998 C160.394249,72.2594807 161.301777,72.1390563 162.219237,72.001251 L165.809622,71.457479 C166.727083,71.3196738 167.62592,71.1657292 168.503653,70.9968867" id="Fill-39" fill="#0E3E20"></path>
                <path d="M170.336711,92.8283403 C171.42053,92.8320648 172.167907,92.8084765 172.575115,92.758817 C172.544078,92.9127615 172.518006,93.0604987 172.494418,93.2007869 C172.47083,93.3410751 172.458415,93.4813633 172.455932,93.6228931 C172.453449,93.8053919 172.484486,94.0164449 172.551527,94.2572937 C172.061139,94.2076342 171.473914,94.1542502 170.792337,94.1021077 C170.109518,94.0487237 169.379523,94.0015471 168.598627,93.9618194 C167.818972,93.9220918 167.01697,93.8811227 166.195105,93.8389121 C165.370756,93.7967015 164.572479,93.7656642 163.799032,93.73711 C162.857983,93.7097973 162.016254,93.5521282 161.275085,93.2665858 C160.533917,92.9798019 159.906965,92.5800426 159.39423,92.0648248 C158.881495,91.549607 158.496634,90.9201723 158.242128,90.1777621 C157.987623,89.4353519 157.865957,88.5849321 157.882097,87.6289859 C157.914375,85.5184552 158.417178,83.9914242 159.389264,83.0503758 C160.36135,82.1093274 161.880932,81.656184 163.949252,81.6884628 C164.610965,81.6983947 165.196948,81.7257074 165.709683,81.7691595 C166.223659,81.8113701 166.746326,81.8386829 167.281407,81.8461318 C168.464546,81.8659956 169.512362,81.8684786 170.426098,81.8535807 C171.342317,81.8411659 172.117006,81.826268 172.748923,81.8064042 C172.717886,81.9752466 172.690573,82.1577455 172.666985,82.3526592 C172.642155,82.5512974 172.62974,82.7337962 172.626016,82.9013972 C172.624774,83.0578247 172.633465,83.2080448 172.650846,83.3570235 C172.669468,83.5047606 172.690573,83.6549808 172.717886,83.8101668 C172.408755,83.7778881 172.005272,83.7443679 171.504952,83.7083648 C171.005873,83.6711201 170.440996,83.6338755 169.807837,83.5966308 C169.174677,83.5569032 168.494342,83.5271074 167.761863,83.4997947 C167.031868,83.4762064 166.272077,83.4563426 165.483732,83.4439277 C165.004517,83.4364788 164.509163,83.4352373 163.996428,83.4402032 C163.482452,83.4464107 162.980891,83.4886213 162.495469,83.5655936 C162.007564,83.6413244 161.542005,83.7704392 161.096311,83.955421 C160.649375,84.1379198 160.257065,84.4011154 159.921863,84.7487322 C159.585419,85.0951076 159.318499,85.5333531 159.119861,86.0647102 C158.922464,86.5960673 158.816938,87.2565393 158.804523,88.0436431 C158.790866,88.8195735 158.89391,89.471355 159.109929,90.0027122 C159.32719,90.5328278 159.613973,90.9698318 159.975247,91.3137242 C160.33652,91.656375 160.75366,91.9282611 161.22915,92.1256578 C161.70464,92.321813 162.201236,92.4670671 162.721419,92.5601788 C163.23912,92.6520489 163.760545,92.7103989 164.279488,92.7327457 C164.800913,92.7550925 165.278886,92.7687489 165.714649,92.7761978 C167.713445,92.8084765 169.252891,92.8270988 170.336711,92.8283403" id="Fill-41" fill="#0E3E20"></path>
                <path d="M164.784005,102.263282 C164.78527,102.757394 164.861001,103.215503 165.013704,103.633885 C165.167649,104.051025 165.412222,104.411057 165.744941,104.715222 C166.078901,105.020628 166.535769,105.229198 167.114303,105.344656 C167.680422,105.458873 168.153429,105.445217 168.533324,105.307412 C168.911978,105.167123 169.226075,104.958553 169.475614,104.677977 C169.725154,104.398642 169.92255,104.064682 170.065321,103.678579 C170.206851,103.288751 170.319827,102.896441 170.39804,102.49544 C170.471288,102.13665 170.520948,101.831243 170.550743,101.57798 C170.579298,101.325958 170.599162,101.100007 170.610335,100.901369 C169.953587,100.739975 169.304289,100.582306 168.661198,100.425878 C168.018107,100.266968 167.366325,100.121714 166.704612,99.9888744 L165.152751,99.6772607 L164.928041,100.7946 C164.831205,101.278781 164.782787,101.767928 164.784005,102.263282 M160.176864,98.7225559 C159.481631,98.6133049 158.78019,98.5003295 158.0713,98.387354 C157.989361,98.6431007 157.90494,98.9485069 157.811829,99.3035726 C157.718717,99.6561554 157.635537,100.021153 157.561048,100.394841 C157.471661,100.836811 157.464212,101.273815 157.532494,101.712061 C157.603258,102.149065 157.755962,102.550065 157.991844,102.91258 C158.227727,103.275095 158.545548,103.591674 158.942825,103.857353 C159.342584,104.123032 159.818074,104.311738 160.368054,104.423472 C160.962727,104.542655 161.469254,104.532723 161.892602,104.396159 C162.314708,104.255871 162.672257,104.008815 162.966489,103.652507 C163.260722,103.294959 163.506537,102.846781 163.700209,102.303009 C163.893881,101.76172 164.061482,101.1447 164.199288,100.455674 L164.386752,99.5257991 L162.27498,99.0999685 C161.572298,98.9609218 160.87334,98.8330484 160.176864,98.7225559 M169.207453,98.6716549 C170.096359,98.8144261 170.986506,98.9547143 171.879136,99.0887951 C171.779817,99.4438608 171.68174,99.8038925 171.586145,100.171373 C171.49055,100.540095 171.407371,100.90261 171.335364,101.262642 C171.263358,101.62019 171.207491,101.990154 171.166522,102.37005 C171.125553,102.749945 171.070927,103.117426 170.998921,103.477457 C170.879738,104.068406 170.722069,104.618385 170.528397,105.126154 C170.332241,105.632682 170.082702,106.063478 169.774813,106.417303 C169.465682,106.771127 169.095719,107.026873 168.662439,107.184543 C168.22916,107.342212 167.722632,107.360834 167.142857,107.245375 C166.122353,107.041771 165.384909,106.558832 164.93549,105.802766 C164.48483,105.042975 164.245223,104.124273 164.219151,103.042936 L164.178182,103.034246 C163.875259,104.252146 163.384871,105.159675 162.704535,105.763038 C162.024199,106.36516 161.0906,106.547659 159.903737,106.311776 C159.131531,106.155348 158.515753,105.866082 158.05516,105.445217 C157.593327,105.020628 157.253159,104.521549 157.030932,103.94674 C156.808706,103.373172 156.694489,102.763601 156.685798,102.124235 C156.678349,101.482385 156.736699,100.860399 156.857124,100.253311 C156.922923,99.921834 156.998653,99.589115 157.07935,99.2539131 C157.160047,98.9187111 157.234536,98.5847507 157.301577,98.2545147 C157.366134,97.9242787 157.434416,97.5878353 157.502698,97.2501504 C157.569738,96.911224 157.623122,96.5747806 157.66285,96.2383372 C158.536858,96.4568392 159.408383,96.6703752 160.277425,96.8801868 C161.146467,97.0924814 162.036614,97.2886366 162.946626,97.4711354 L166.505973,98.1849914 C167.417226,98.3662487 168.317305,98.5288837 169.207453,98.6716549" id="Fill-43" fill="#0E3E20"></path>
                <path d="M71.2291693,134.731065 C71.1199183,134.532427 70.9709396,134.373516 70.7822333,134.254333 L70.7822333,134.150048 C71.3483522,133.921614 71.9268859,133.670834 72.5178345,133.397706 C73.1087831,133.124579 73.662487,132.8589 74.1789463,132.60067 L74.2832313,132.67516 C74.2435037,133.330666 74.2137079,133.978723 74.1938441,134.619331 C74.1739803,135.259939 74.1640484,135.907996 74.1640484,136.563502 L74.1640484,139.050204 C74.1640484,139.706951 74.1739803,140.350042 74.1938441,140.980719 C74.2137079,141.611395 74.2435037,142.229656 74.2832313,142.835503 C74.1640484,142.815639 74.0473485,142.805707 73.9331315,142.805707 L73.5830317,142.805707 L73.2329319,142.805707 C73.118715,142.805707 73.002015,142.815639 72.8828321,142.835503 C72.9324917,142.219724 72.9647704,141.59898 72.9796682,140.97327 C72.9945661,140.346318 73.002015,139.706951 73.002015,139.050204 L73.002015,133.747806 L71.2291693,134.731065 Z" id="Fill-45" fill="#0E3E20"></path>
                <path d="M71.2291693,134.731065 C71.1199183,134.532427 70.9709396,134.373516 70.7822333,134.254333 L70.7822333,134.150048 C71.3483522,133.921614 71.9268859,133.670834 72.5178345,133.397706 C73.1087831,133.124579 73.662487,132.8589 74.1789463,132.60067 L74.2832313,132.67516 C74.2435037,133.330666 74.2137079,133.978723 74.1938441,134.619331 C74.1739803,135.259939 74.1640484,135.907996 74.1640484,136.563502 L74.1640484,139.050204 C74.1640484,139.706951 74.1739803,140.350042 74.1938441,140.980719 C74.2137079,141.611395 74.2435037,142.229656 74.2832313,142.835503 C74.1640484,142.815639 74.0473485,142.805707 73.9331315,142.805707 L73.5830317,142.805707 L73.2329319,142.805707 C73.118715,142.805707 73.002015,142.815639 72.8828321,142.835503 C72.9324917,142.219724 72.9647704,141.59898 72.9796682,140.97327 C72.9945661,140.346318 73.002015,139.706951 73.002015,139.050204 L73.002015,133.747806 L71.2291693,134.731065 Z" id="Stroke-47" stroke="#0E3E20" stroke-width="0.45"></path>
                <path d="M83.2367232,134.447385 C83.1771318,134.218951 83.0802957,134.01783 82.9462149,133.845263 C82.8121341,133.671454 82.6457746,133.532408 82.4471365,133.428123 C82.2484983,133.323838 82.0051665,133.271695 81.7171411,133.271695 C81.4390477,133.271695 81.1981989,133.323838 80.9945947,133.428123 C80.7909906,133.532408 80.6246311,133.671454 80.4955163,133.845263 C80.3664015,134.01783 80.2720484,134.218951 80.2124569,134.447385 C80.1528655,134.67706 80.1230697,134.920392 80.1230697,135.178622 C80.1230697,135.425678 80.1528655,135.666527 80.2124569,135.901168 C80.2720484,136.133326 80.3664015,136.33693 80.4955163,136.510739 C80.6246311,136.685789 80.7909906,136.823594 80.9945947,136.927879 C81.1981989,137.032164 81.4390477,137.084307 81.7171411,137.084307 C82.0051665,137.084307 82.2484983,137.032164 82.4471365,136.927879 C82.6457746,136.823594 82.8121341,136.685789 82.9462149,136.510739 C83.0802957,136.33693 83.1771318,136.133326 83.2367232,135.901168 C83.2963147,135.666527 83.3261104,135.425678 83.3261104,135.178622 C83.3261104,134.920392 83.2963147,134.67706 83.2367232,134.447385 M83.5719252,139.059515 C83.477572,138.756592 83.3434913,138.493396 83.1696828,138.268687 C82.9958744,138.045219 82.7848214,137.872652 82.5365236,137.747262 C82.2882259,137.624354 82.0101325,137.56228 81.7022433,137.56228 C81.3943541,137.56228 81.1162606,137.624354 80.8679629,137.747262 C80.6196652,137.872652 80.4086121,138.045219 80.2348037,138.268687 C80.0609953,138.493396 79.9269145,138.756592 79.8325614,139.059515 C79.7382082,139.362438 79.6910317,139.69764 79.6910317,140.063879 C79.6910317,140.43136 79.7382082,140.767803 79.8325614,141.069485 C79.9269145,141.372408 80.0609953,141.635604 80.2348037,141.860313 C80.4086121,142.08254 80.6196652,142.256348 80.8679629,142.381739 C81.1162606,142.504646 81.3943541,142.56672 81.7022433,142.56672 C82.0101325,142.56672 82.2882259,142.504646 82.5365236,142.381739 C82.7848214,142.256348 82.9958744,142.08254 83.1696828,141.860313 C83.3434913,141.635604 83.477572,141.372408 83.5719252,141.069485 C83.6662783,140.767803 83.7134549,140.43136 83.7134549,140.063879 C83.7134549,139.69764 83.6662783,139.362438 83.5719252,139.059515 M78.8790981,138.469808 C79.2118171,137.963281 79.765521,137.580902 80.5402099,137.322672 L80.5402099,137.218387 C80.3515036,137.17866 80.1615559,137.102929 79.9666422,136.988712 C79.7742114,136.873254 79.5966785,136.730482 79.437768,136.555432 C79.2788574,136.382866 79.1497426,136.176778 79.0504235,135.937171 C78.9511044,135.700047 78.9014449,135.441817 78.9014449,135.162482 C78.9014449,134.844661 78.9684853,134.544221 79.1025661,134.262403 C79.2366468,133.978102 79.4253531,133.728563 79.6699264,133.508819 C79.9120167,133.290317 80.205008,133.11775 80.5476588,132.987394 C80.8903097,132.859521 81.2751712,132.793722 81.7022433,132.793722 C82.1988387,132.793722 82.6259108,132.857038 82.9834596,132.979945 C83.3410083,133.105336 83.6339996,133.266729 83.8624335,133.464126 C84.0908674,133.662764 84.2621929,133.894922 84.3776513,134.158118 C84.4906268,134.421313 84.5477352,134.695682 84.5477352,134.984949 C84.5477352,135.460439 84.4062055,135.901168 84.1231461,136.302169 C83.8400867,136.704411 83.4254295,136.996161 82.8791745,137.173694 L82.8791745,137.277979 C83.048017,137.309016 83.2565871,137.369849 83.5048848,137.465444 C83.7531825,137.559797 83.9903068,137.702568 84.2125333,137.89624 C84.4360013,138.091154 84.6271905,138.341935 84.7861011,138.649824 C84.9450116,138.957713 85.0244669,139.33885 85.0244669,139.796959 C85.0244669,140.293555 84.9375627,140.739249 84.7637543,141.137767 C84.5899459,141.533802 84.35158,141.87397 84.0486568,142.157029 C83.7457336,142.440089 83.3943923,142.651142 82.9909085,142.79143 C82.5886662,142.929235 82.1591111,143 81.7022433,143 C81.2354435,143 80.7984395,142.942892 80.3912313,142.827433 C79.984023,142.713216 79.6314402,142.5332 79.3347244,142.283661 C79.0355257,142.035363 78.8021258,141.73244 78.6332834,141.374891 C78.4644409,141.017343 78.3800197,140.60641 78.3800197,140.138369 C78.3800197,139.533764 78.5463792,138.976335 78.8790981,138.469808" id="Fill-49" fill="#0E3E20"></path>
                <path d="M83.2367232,134.447385 C83.1771318,134.218951 83.0802957,134.01783 82.9462149,133.845263 C82.8121341,133.671454 82.6457746,133.532408 82.4471365,133.428123 C82.2484983,133.323838 82.0051665,133.271695 81.7171411,133.271695 C81.4390477,133.271695 81.1981989,133.323838 80.9945947,133.428123 C80.7909906,133.532408 80.6246311,133.671454 80.4955163,133.845263 C80.3664015,134.01783 80.2720484,134.218951 80.2124569,134.447385 C80.1528655,134.67706 80.1230697,134.920392 80.1230697,135.178622 C80.1230697,135.425678 80.1528655,135.666527 80.2124569,135.901168 C80.2720484,136.133326 80.3664015,136.33693 80.4955163,136.510739 C80.6246311,136.685789 80.7909906,136.823594 80.9945947,136.927879 C81.1981989,137.032164 81.4390477,137.084307 81.7171411,137.084307 C82.0051665,137.084307 82.2484983,137.032164 82.4471365,136.927879 C82.6457746,136.823594 82.8121341,136.685789 82.9462149,136.510739 C83.0802957,136.33693 83.1771318,136.133326 83.2367232,135.901168 C83.2963147,135.666527 83.3261104,135.425678 83.3261104,135.178622 C83.3261104,134.920392 83.2963147,134.67706 83.2367232,134.447385 Z M83.5719252,139.059515 C83.477572,138.756592 83.3434913,138.493396 83.1696828,138.268687 C82.9958744,138.045219 82.7848214,137.872652 82.5365236,137.747262 C82.2882259,137.624354 82.0101325,137.56228 81.7022433,137.56228 C81.3943541,137.56228 81.1162606,137.624354 80.8679629,137.747262 C80.6196652,137.872652 80.4086121,138.045219 80.2348037,138.268687 C80.0609953,138.493396 79.9269145,138.756592 79.8325614,139.059515 C79.7382082,139.362438 79.6910317,139.69764 79.6910317,140.063879 C79.6910317,140.43136 79.7382082,140.767803 79.8325614,141.069485 C79.9269145,141.372408 80.0609953,141.635604 80.2348037,141.860313 C80.4086121,142.08254 80.6196652,142.256348 80.8679629,142.381739 C81.1162606,142.504646 81.3943541,142.56672 81.7022433,142.56672 C82.0101325,142.56672 82.2882259,142.504646 82.5365236,142.381739 C82.7848214,142.256348 82.9958744,142.08254 83.1696828,141.860313 C83.3434913,141.635604 83.477572,141.372408 83.5719252,141.069485 C83.6662783,140.767803 83.7134549,140.43136 83.7134549,140.063879 C83.7134549,139.69764 83.6662783,139.362438 83.5719252,139.059515 Z M78.8790981,138.469808 C79.2118171,137.963281 79.765521,137.580902 80.5402099,137.322672 L80.5402099,137.218387 C80.3515036,137.17866 80.1615559,137.102929 79.9666422,136.988712 C79.7742114,136.873254 79.5966785,136.730482 79.437768,136.555432 C79.2788574,136.382866 79.1497426,136.176778 79.0504235,135.937171 C78.9511044,135.700047 78.9014449,135.441817 78.9014449,135.162482 C78.9014449,134.844661 78.9684853,134.544221 79.1025661,134.262403 C79.2366468,133.978102 79.4253531,133.728563 79.6699264,133.508819 C79.9120167,133.290317 80.205008,133.11775 80.5476588,132.987394 C80.8903097,132.859521 81.2751712,132.793722 81.7022433,132.793722 C82.1988387,132.793722 82.6259108,132.857038 82.9834596,132.979945 C83.3410083,133.105336 83.6339996,133.266729 83.8624335,133.464126 C84.0908674,133.662764 84.2621929,133.894922 84.3776513,134.158118 C84.4906268,134.421313 84.5477352,134.695682 84.5477352,134.984949 C84.5477352,135.460439 84.4062055,135.901168 84.1231461,136.302169 C83.8400867,136.704411 83.4254295,136.996161 82.8791745,137.173694 L82.8791745,137.277979 C83.048017,137.309016 83.2565871,137.369849 83.5048848,137.465444 C83.7531825,137.559797 83.9903068,137.702568 84.2125333,137.89624 C84.4360013,138.091154 84.6271905,138.341935 84.7861011,138.649824 C84.9450116,138.957713 85.0244669,139.33885 85.0244669,139.796959 C85.0244669,140.293555 84.9375627,140.739249 84.7637543,141.137767 C84.5899459,141.533802 84.35158,141.87397 84.0486568,142.157029 C83.7457336,142.440089 83.3943923,142.651142 82.9909085,142.79143 C82.5886662,142.929235 82.1591111,143 81.7022433,143 C81.2354435,143 80.7984395,142.942892 80.3912313,142.827433 C79.984023,142.713216 79.6314402,142.5332 79.3347244,142.283661 C79.0355257,142.035363 78.8021258,141.73244 78.6332834,141.374891 C78.4644409,141.017343 78.3800197,140.60641 78.3800197,140.138369 C78.3800197,139.533764 78.5463792,138.976335 78.8790981,138.469808 Z" id="Stroke-51" stroke="#0E3E20" stroke-width="0.45"></path>
                <path d="M91.1991348,133.918759 C90.8366201,133.486721 90.3574055,133.271943 89.7627324,133.271943 C89.1655764,133.271943 88.6876033,133.511551 88.3250886,133.99449 C87.9625739,134.474946 87.7800751,135.137901 87.7800751,135.982113 C87.7800751,136.846189 87.9439516,137.46445 88.2729461,137.836897 C88.5994576,138.209344 89.047635,138.395567 89.6137538,138.395567 C89.9601291,138.395567 90.2655353,138.316112 90.5287309,138.157201 C90.7919265,137.998291 91.0129115,137.78972 91.1916858,137.531491 C91.3717017,137.273261 91.507024,136.975304 91.6013771,136.637619 C91.6957302,136.299934 91.7416653,135.953559 91.7416653,135.59601 C91.7416653,134.909467 91.5616495,134.352038 91.1991348,133.918759 M88.0047845,142.403092 C88.2518407,142.512343 88.5150363,142.566969 88.7943713,142.566969 C89.3294529,142.566969 89.7888037,142.419232 90.1711822,142.120033 C90.5535607,141.822076 90.8639328,141.43349 91.1022987,140.950551 C91.3406645,140.468853 91.5169559,139.930047 91.6311728,139.334132 C91.7441483,138.738218 91.8024983,138.142303 91.8024983,137.546389 L91.7727025,137.546389 C91.5430271,137.963529 91.232655,138.301214 90.841586,138.559443 C90.4492756,138.817673 89.9551632,138.946788 89.3592486,138.946788 C88.4554449,138.946788 87.7490378,138.692283 87.2375445,138.180789 C86.7248097,137.669296 86.4690631,136.936818 86.4690631,135.982113 C86.4690631,135.525245 86.5460354,135.103139 86.6999799,134.717036 C86.855166,134.32845 87.0749095,133.99449 87.3629349,133.710189 C87.6522017,133.428371 87.9985771,133.203661 88.4057853,133.039785 C88.8129936,132.875908 89.2698614,132.79397 89.7776303,132.79397 C90.2233247,132.79397 90.6491553,132.870942 91.0501561,133.024887 C91.4523985,133.178832 91.8049812,133.428371 92.1079045,133.76978 C92.4120692,134.112431 92.6541595,134.555643 92.8378998,135.09569 C93.0228816,135.638221 93.1147518,136.299934 93.1147518,137.084555 C93.1147518,137.908903 93.0154327,138.683592 92.8167945,139.408622 C92.6181563,140.133651 92.3288894,140.765569 91.9502354,141.30065 C91.5740643,141.836973 91.1147136,142.254114 90.5734245,142.552071 C90.0333769,142.850028 89.4151156,142.999007 88.7186405,142.999007 C88.4604108,142.999007 88.227011,142.97666 88.0196824,142.931966 C87.8111123,142.888514 87.6522017,142.845062 87.5429507,142.805335 C87.5119135,142.696084 87.4697029,142.562003 87.4150774,142.403092 C87.3604519,142.244182 87.3033434,142.111342 87.243752,142.00085 L87.3182413,141.957398 C87.5268114,142.144863 87.7564868,142.293841 88.0047845,142.403092" id="Fill-53" fill="#0E3E20"></path>
                <path d="M91.1991348,133.918759 C90.8366201,133.486721 90.3574055,133.271943 89.7627324,133.271943 C89.1655764,133.271943 88.6876033,133.511551 88.3250886,133.99449 C87.9625739,134.474946 87.7800751,135.137901 87.7800751,135.982113 C87.7800751,136.846189 87.9439516,137.46445 88.2729461,137.836897 C88.5994576,138.209344 89.047635,138.395567 89.6137538,138.395567 C89.9601291,138.395567 90.2655353,138.316112 90.5287309,138.157201 C90.7919265,137.998291 91.0129115,137.78972 91.1916858,137.531491 C91.3717017,137.273261 91.507024,136.975304 91.6013771,136.637619 C91.6957302,136.299934 91.7416653,135.953559 91.7416653,135.59601 C91.7416653,134.909467 91.5616495,134.352038 91.1991348,133.918759 Z M88.0047845,142.403092 C88.2518407,142.512343 88.5150363,142.566969 88.7943713,142.566969 C89.3294529,142.566969 89.7888037,142.419232 90.1711822,142.120033 C90.5535607,141.822076 90.8639328,141.43349 91.1022987,140.950551 C91.3406645,140.468853 91.5169559,139.930047 91.6311728,139.334132 C91.7441483,138.738218 91.8024983,138.142303 91.8024983,137.546389 L91.7727025,137.546389 C91.5430271,137.963529 91.232655,138.301214 90.841586,138.559443 C90.4492756,138.817673 89.9551632,138.946788 89.3592486,138.946788 C88.4554449,138.946788 87.7490378,138.692283 87.2375445,138.180789 C86.7248097,137.669296 86.4690631,136.936818 86.4690631,135.982113 C86.4690631,135.525245 86.5460354,135.103139 86.6999799,134.717036 C86.855166,134.32845 87.0749095,133.99449 87.3629349,133.710189 C87.6522017,133.428371 87.9985771,133.203661 88.4057853,133.039785 C88.8129936,132.875908 89.2698614,132.79397 89.7776303,132.79397 C90.2233247,132.79397 90.6491553,132.870942 91.0501561,133.024887 C91.4523985,133.178832 91.8049812,133.428371 92.1079045,133.76978 C92.4120692,134.112431 92.6541595,134.555643 92.8378998,135.09569 C93.0228816,135.638221 93.1147518,136.299934 93.1147518,137.084555 C93.1147518,137.908903 93.0154327,138.683592 92.8167945,139.408622 C92.6181563,140.133651 92.3288894,140.765569 91.9502354,141.30065 C91.5740643,141.836973 91.1147136,142.254114 90.5734245,142.552071 C90.0333769,142.850028 89.4151156,142.999007 88.7186405,142.999007 C88.4604108,142.999007 88.227011,142.97666 88.0196824,142.931966 C87.8111123,142.888514 87.6522017,142.845062 87.5429507,142.805335 C87.5119135,142.696084 87.4697029,142.562003 87.4150774,142.403092 C87.3604519,142.244182 87.3033434,142.111342 87.243752,142.00085 L87.3182413,141.957398 C87.5268114,142.144863 87.7564868,142.293841 88.0047845,142.403092 Z" id="Stroke-55" stroke="#0E3E20" stroke-width="0.45"></path>
                <path d="M98.8419871,138.000898 C97.9232856,139.634697 97.057968,141.246149 96.2423099,142.836496 C96.0833994,142.815391 95.8946931,142.805459 95.6761911,142.805459 C95.4874848,142.805459 95.3087105,142.815391 95.1411095,142.836496 C95.6079092,142.111467 96.0958143,141.329329 96.6073076,140.488841 C97.1188009,139.649595 97.6129134,138.830212 98.0908865,138.030693 C98.5663767,137.231175 99.0083466,136.483799 99.4155549,135.788565 C99.8227632,135.093331 100.155482,134.517281 100.414953,134.060413 C99.9667759,134.060413 99.3087869,134.065379 98.4397448,134.075311 C97.5707028,134.085243 96.4955736,134.129936 95.2143573,134.209391 C95.254085,134.010753 95.2739488,133.787285 95.2739488,133.538988 C95.2739488,133.300622 95.254085,133.08212 95.2143573,132.883482 C95.6314975,132.913277 96.0014611,132.938107 96.3242482,132.959212 C96.6470352,132.977835 96.9474755,132.992733 97.2255689,133.002664 C97.4540028,133.002664 97.769341,133.008872 98.1715833,133.017562 C98.5738256,133.027494 98.963653,133.03246 99.3410656,133.03246 L100.041265,133.03246 C100.349154,133.03246 100.617316,133.029977 100.84575,133.025011 C101.074184,133.020045 101.317515,133.017562 101.575745,133.017562 L101.575745,133.255928 C100.671941,134.785442 99.7606887,136.36834 98.8419871,138.000898" id="Fill-57" fill="#0E3E20"></path>
                <path d="M98.8419871,138.000898 C97.9232856,139.634697 97.057968,141.246149 96.2423099,142.836496 C96.0833994,142.815391 95.8946931,142.805459 95.6761911,142.805459 C95.4874848,142.805459 95.3087105,142.815391 95.1411095,142.836496 C95.6079092,142.111467 96.0958143,141.329329 96.6073076,140.488841 C97.1188009,139.649595 97.6129134,138.830212 98.0908865,138.030693 C98.5663767,137.231175 99.0083466,136.483799 99.4155549,135.788565 C99.8227632,135.093331 100.155482,134.517281 100.414953,134.060413 C99.9667759,134.060413 99.3087869,134.065379 98.4397448,134.075311 C97.5707028,134.085243 96.4955736,134.129936 95.2143573,134.209391 C95.254085,134.010753 95.2739488,133.787285 95.2739488,133.538988 C95.2739488,133.300622 95.254085,133.08212 95.2143573,132.883482 C95.6314975,132.913277 96.0014611,132.938107 96.3242482,132.959212 C96.6470352,132.977835 96.9474755,132.992733 97.2255689,133.002664 C97.4540028,133.002664 97.769341,133.008872 98.1715833,133.017562 C98.5738256,133.027494 98.963653,133.03246 99.3410656,133.03246 L100.041265,133.03246 C100.349154,133.03246 100.617316,133.029977 100.84575,133.025011 C101.074184,133.020045 101.317515,133.017562 101.575745,133.017562 L101.575745,133.255928 C100.671941,134.785442 99.7606887,136.36834 98.8419871,138.000898 Z" id="Stroke-59" stroke="#0E3E20" stroke-width="0.55"></path>
            </g>
        </g>
    </g>
</svg>